<?xml version="1.0" encoding="UTF-8" standalone="no"?>
<!-- Created with Inkscape (http://www.inkscape.org/) -->

<svg
   xmlns:dc="http://purl.org/dc/elements/1.1/"
   xmlns:cc="http://creativecommons.org/ns#"
   xmlns:rdf="http://www.w3.org/1999/02/22-rdf-syntax-ns#"
   xmlns:svg="http://www.w3.org/2000/svg"
   xmlns="http://www.w3.org/2000/svg"
   xmlns:sodipodi="http://sodipodi.sourceforge.net/DTD/sodipodi-0.dtd"
   xmlns:inkscape="http://www.inkscape.org/namespaces/inkscape"
   version="1.1"
   id="svg45"
   xml:space="preserve"
   width="634.66669"
   height="454.66666"
   viewBox="0 0 634.66669 454.66666"
   sodipodi:docname="ex-coordenador-de-projetos-arquiteto2.svg"
   inkscape:version="0.92.2 5c3e80d, 2017-08-06"><metadata
     id="metadata51"><rdf:RDF><cc:Work
         rdf:about=""><dc:format>image/svg+xml</dc:format><dc:type
           rdf:resource="http://purl.org/dc/dcmitype/StillImage" /><dc:title></dc:title></cc:Work></rdf:RDF></metadata><defs
     id="defs49" /><sodipodi:namedview
     pagecolor="#ffffff"
     bordercolor="#666666"
     borderopacity="1"
     objecttolerance="10"
     gridtolerance="10"
     guidetolerance="10"
     inkscape:pageopacity="0"
     inkscape:pageshadow="2"
     inkscape:window-width="1311"
     inkscape:window-height="704"
     id="namedview47"
     showgrid="false"
     inkscape:zoom="1.0513197"
     inkscape:cx="317.33334"
     inkscape:cy="227.33333"
     inkscape:window-x="55"
     inkscape:window-y="30"
     inkscape:window-maximized="1"
     inkscape:current-layer="g183" /><g
     id="g53"
     inkscape:groupmode="layer"
     inkscape:label="ex-coordenador-de-projetos-arquiteto"
     transform="matrix(1.3333333,0,0,-1.3333333,0,454.66667)"><g
       id="g55" /><g
       id="g57"
       transform="matrix(1,0,0,-1,-85.3,415)"><g
         id="g59"><path
           d="m 346.6,149.25 c -24.09,29.89 -48.8,54.33 -74.12,73.31 l -1.15,-1.64 -6.75,7.79 9.62,-3.7 -1.14,-1.64 c 25.84,-18.54 50.62,-43.05 74.34,-73.52"
           style="fill:#99ccff;fill-opacity:1;fill-rule:nonzero;stroke:none"
           id="path61"
           inkscape:connector-curvature="0" /></g><g
         id="g63"><path
           d="m 318.42,353.55 c -24.4,-30.24 -43.3,-59.67 -56.7,-88.3 l 2.05,-0.88 -6.85,-8.77 1.61,11.01 2.05,-0.88 c 12.87,29.08 31.84,58.62 56.9,88.62"
           style="fill:#8fc3f6;fill-opacity:1;fill-rule:nonzero;stroke:none"
           id="path65"
           inkscape:connector-curvature="0" /></g><g
         id="g67"><path
           d="m 142.2,163.2 c 26.4,28.32 53.69,49.3 81.85,62.95 l -1.05,2 10.93,2.5 -8.23,-7.62 -1.05,2 C 196.96,210.89 169.78,189.99 143.1,162.3"
           style="fill:#8fc3f6;fill-opacity:1;fill-rule:nonzero;stroke:none"
           id="path69"
           inkscape:connector-curvature="0" /></g><g
         id="g71"><path
           d="m 239.97,121.18 1.93,-19.98 -1.38,-0.13 -1.93,19.98 c -3.56,30.17 -2.12,60.06 4.32,89.66 l -2.31,0.45 5.8,10.22 -2.13,-10.94 c -5.76,-29.51 -7.19,-59.27 -4.3,-89.26"
           style="fill:#8abff2;fill-opacity:1;fill-rule:nonzero;stroke:none"
           id="path73"
           inkscape:connector-curvature="0" /></g><g
         id="g75"><path
           d="m 203.93,365.61 c 21.08,-33.7 34.43,-65.84 40.07,-96.41 l 2.78,0.63 -0.95,-13.23 -6.61,11.5 2.78,0.64 c -6.2,30.17 -19.48,62.12 -39.83,95.85"
           style="fill:#72a9dc;fill-opacity:1;fill-rule:nonzero;stroke:none"
           id="path77"
           inkscape:connector-curvature="0" /></g><g
         id="g79"><path
           d="m 244.27,210.44 5.58,28.61 2.09,-0.41 -5.58,-28.61 c -5.07,-29.36 -6.49,-58.91 -4.27,-88.65 l 2.91,0.28 -3.79,-13.29 -1.24,12.81 c -2.89,29.99 -1.46,59.75 4.3,89.26"
           style="fill:#6da5d8;fill-opacity:1;fill-rule:nonzero;stroke:none"
           id="path81"
           inkscape:connector-curvature="0" /></g><g
         id="g83"><path
           d="m 281.38,247.81 -31.53,-8.76 -0.72,2.59 31.53,8.76 c 27.58,8.34 55.84,11.92 84.77,10.73 l 0.06,3.28 13.79,-6.22 -13.9,0.26 c -28.56,0.54 -56.56,-3.01 -84,-10.64"
           style="fill:#5791c4;fill-opacity:1;fill-rule:nonzero;stroke:none"
           id="path85"
           inkscape:connector-curvature="0" /></g><g
         id="g87"><path
           d="m 365.38,258.45 21.07,-0.4 -0.06,-3.19 -21.07,0.4 c -28.14,-0.1 -55.83,-3.61 -83.09,-10.52 l 0.96,-3.44 -16,2.57 14.19,3.94 c 27.44,7.63 55.44,11.18 84,10.64"
           style="fill:#4480b3;fill-opacity:1;fill-rule:nonzero;stroke:none"
           id="path89"
           inkscape:connector-curvature="0" /></g><g
         id="g91"><path
           d="m 140.72,275.87 -26.12,3.73 0.66,4.61 26.12,-3.73 c 27.58,-3.31 53.83,-10.94 78.76,-22.9 l 1.78,3.93 11.53,-15.05 -15.22,6.87 c -24.74,11.18 -50.58,18.69 -77.51,22.54"
           style="fill:#0c4e81;fill-opacity:1;fill-rule:nonzero;stroke:none"
           id="path93"
           inkscape:connector-curvature="0" /></g><g
         id="g95"><path
           d="m 218.23,253.33 31.62,-14.28 -2.06,-4.56 -31.62,14.29 c -24.52,10.38 -49.9,17.76 -76.15,22.14 l -0.64,-4.43 -15.58,11.8 16.92,-2.42 c 26.93,-3.85 52.77,-11.36 77.51,-22.54"
           style="fill:#004477;fill-opacity:1;fill-rule:nonzero;stroke:none"
           id="path97"
           inkscape:connector-curvature="0" /></g><g
         id="g99"><path
           d="m 267.85,239.05 c 0,9.94 -8.06,18 -18,18 -9.94,0 -18,-8.06 -18,-18 0,-9.94 8.06,-18 18,-18 9.94,0 18,8.06 18,18"
           style="fill:#ff9900;fill-opacity:1;fill-rule:nonzero;stroke:#ed8e00;stroke-width:0.75;stroke-linecap:butt;stroke-linejoin:miter;stroke-miterlimit:10;stroke-dasharray:none;stroke-opacity:1"
           id="path101"
           inkscape:connector-curvature="0" /></g><g
         id="g103"><path
           d="m 267.85,239.05 c 0,9.94 -8.06,18 -18,18 -9.94,0 -18,-8.06 -18,-18 0,-9.94 8.06,-18 18,-18 9.94,0 18,8.06 18,18"
           style="fill:#660000;fill-opacity:1;fill-rule:nonzero;stroke:none"
           id="path105"
           inkscape:connector-curvature="0" /></g><g
         id="g107"><path
           d="m 123.89,279.6 c 0,5.13 -4.16,9.29 -9.29,9.29 -5.13,0 -9.29,-4.16 -9.29,-9.29 0,-5.13 4.16,-9.29 9.29,-9.29 5.13,0 9.29,4.16 9.29,9.29"
           style="fill:#ff9900;fill-opacity:1;fill-rule:nonzero;stroke:#ed8e00;stroke-width:0.75;stroke-linecap:butt;stroke-linejoin:miter;stroke-miterlimit:10;stroke-dasharray:none;stroke-opacity:1"
           id="path109"
           inkscape:connector-curvature="0" /></g><g
         id="g111"><path
           d="m 123.89,279.6 c 0,5.13 -4.16,9.29 -9.29,9.29 -5.13,0 -9.29,-4.16 -9.29,-9.29 0,-5.13 4.16,-9.29 9.29,-9.29 5.13,0 9.29,4.16 9.29,9.29"
           style="fill:#b65000;fill-opacity:1;fill-rule:nonzero;stroke:none"
           id="path113"
           inkscape:connector-curvature="0" /></g><g
         id="g115"><path
           d="m 393.63,258.05 c 0,3.96 -3.22,7.18 -7.18,7.18 -3.96,0 -7.18,-3.22 -7.18,-7.18 0,-3.96 3.22,-7.18 7.18,-7.18 3.96,0 7.18,3.22 7.18,7.18"
           style="fill:#ff9900;fill-opacity:1;fill-rule:nonzero;stroke:#ed8e00;stroke-width:0.75;stroke-linecap:butt;stroke-linejoin:miter;stroke-miterlimit:10;stroke-dasharray:none;stroke-opacity:1"
           id="path117"
           inkscape:connector-curvature="0" /></g><g
         id="g119"><path
           d="m 393.63,258.05 c 0,3.96 -3.22,7.18 -7.18,7.18 -3.96,0 -7.18,-3.22 -7.18,-7.18 0,-3.96 3.22,-7.18 7.18,-7.18 3.96,0 7.18,3.22 7.18,7.18"
           style="fill:#c96300;fill-opacity:1;fill-rule:nonzero;stroke:none"
           id="path121"
           inkscape:connector-curvature="0" /></g><g
         id="g123"><path
           d="m 249.11,101.2 c 0,3.98 -3.23,7.21 -7.21,7.21 -3.98,0 -7.21,-3.23 -7.21,-7.21 0,-3.98 3.23,-7.21 7.21,-7.21 3.98,0 7.21,3.23 7.21,7.21"
           style="fill:#ff9900;fill-opacity:1;fill-rule:nonzero;stroke:#ed8e00;stroke-width:0.75;stroke-linecap:butt;stroke-linejoin:miter;stroke-miterlimit:10;stroke-dasharray:none;stroke-opacity:1"
           id="path125"
           inkscape:connector-curvature="0" /></g><g
         id="g127"><path
           d="m 249.11,101.2 c 0,3.98 -3.23,7.21 -7.21,7.21 -3.98,0 -7.21,-3.23 -7.21,-7.21 0,-3.98 3.23,-7.21 7.21,-7.21 3.98,0 7.21,3.23 7.21,7.21"
           style="fill:#c96300;fill-opacity:1;fill-rule:nonzero;stroke:none"
           id="path129"
           inkscape:connector-curvature="0" /></g><g
         id="g131"><path
           d="m 209.49,365.1 c 0,3.56 -2.88,6.44 -6.44,6.44 -3.56,0 -6.44,-2.88 -6.44,-6.44 0,-3.56 2.88,-6.44 6.44,-6.44 3.56,0 6.44,2.88 6.44,6.44"
           style="fill:#ff9900;fill-opacity:1;fill-rule:nonzero;stroke:#ed8e00;stroke-width:0.75;stroke-linecap:butt;stroke-linejoin:miter;stroke-miterlimit:10;stroke-dasharray:none;stroke-opacity:1"
           id="path133"
           inkscape:connector-curvature="0" /></g><g
         id="g135"><path
           d="m 209.49,365.1 c 0,3.56 -2.88,6.44 -6.44,6.44 -3.56,0 -6.44,-2.88 -6.44,-6.44 0,-3.56 2.88,-6.44 6.44,-6.44 3.56,0 6.44,2.88 6.44,6.44"
           style="fill:#ce6800;fill-opacity:1;fill-rule:nonzero;stroke:none"
           id="path137"
           inkscape:connector-curvature="0" /></g><g
         id="g139"><path
           d="m 147.88,162.75 c 0,2.89 -2.34,5.23 -5.23,5.23 -2.89,0 -5.23,-2.34 -5.23,-5.23 0,-2.89 2.34,-5.23 5.23,-5.23 2.89,0 5.23,2.34 5.23,5.23"
           style="fill:#ff9900;fill-opacity:1;fill-rule:nonzero;stroke:#ed8e00;stroke-width:0.75;stroke-linecap:butt;stroke-linejoin:miter;stroke-miterlimit:10;stroke-dasharray:none;stroke-opacity:1"
           id="path141"
           inkscape:connector-curvature="0" /></g><g
         id="g143"><path
           d="m 147.88,162.75 c 0,2.89 -2.34,5.23 -5.23,5.23 -2.89,0 -5.23,-2.34 -5.23,-5.23 0,-2.89 2.34,-5.23 5.23,-5.23 2.89,0 5.23,2.34 5.23,5.23"
           style="fill:#da7400;fill-opacity:1;fill-rule:nonzero;stroke:none"
           id="path145"
           inkscape:connector-curvature="0" /></g><g
         id="g147"><path
           d="m 323.66,353.95 c 0,3.15 -2.56,5.71 -5.71,5.71 -3.15,0 -5.71,-2.56 -5.71,-5.71 0,-3.15 2.56,-5.71 5.71,-5.71 3.15,0 5.71,2.56 5.71,5.71"
           style="fill:#ff9900;fill-opacity:1;fill-rule:nonzero;stroke:#ed8e00;stroke-width:0.75;stroke-linecap:butt;stroke-linejoin:miter;stroke-miterlimit:10;stroke-dasharray:none;stroke-opacity:1"
           id="path149"
           inkscape:connector-curvature="0" /></g><g
         id="g151"><path
           d="m 323.66,353.95 c 0,3.15 -2.56,5.71 -5.71,5.71 -3.15,0 -5.71,-2.56 -5.71,-5.71 0,-3.15 2.56,-5.71 5.71,-5.71 3.15,0 5.71,2.56 5.71,5.71"
           style="fill:#d56f00;fill-opacity:1;fill-rule:nonzero;stroke:none"
           id="path153"
           inkscape:connector-curvature="0" /></g><g
         id="g155"><path
           d="m 352,149.55 c 0,2.76 -2.24,5 -5,5 -2.76,0 -5,-2.24 -5,-5 0,-2.76 2.24,-5 5,-5 2.76,0 5,2.24 5,5"
           style="fill:#ff9900;fill-opacity:1;fill-rule:nonzero;stroke:#ed8e00;stroke-width:0.75;stroke-linecap:butt;stroke-linejoin:miter;stroke-miterlimit:10;stroke-dasharray:none;stroke-opacity:1"
           id="path157"
           inkscape:connector-curvature="0" /></g><g
         id="g159"><path
           d="m 352,149.55 c 0,2.76 -2.24,5 -5,5 -2.76,0 -5,-2.24 -5,-5 0,-2.76 2.24,-5 5,-5 2.76,0 5,2.24 5,5"
           style="fill:#dd7700;fill-opacity:1;fill-rule:nonzero;stroke:none"
           id="path161"
           inkscape:connector-curvature="0" /></g><g
         id="g163"
         transform="matrix(1,0,0,-1,0,341)"><g
           id="g165"><text
             transform="matrix(1,0,0,-1,249.85,69)"
             style="font-variant:normal;font-weight:normal;font-size:15px;font-family:LucidaSansUnicode;-inkscape-font-specification:LucidaSansUnicode;writing-mode:lr-tb;fill:#000000;fill-opacity:1;fill-rule:nonzero;stroke:none"
             id="text169"><tspan
               x="0 8.2799997 14.415 23.85 33.150002 37.485001 43.095001 51.450001 57.060001"
               y="0"
               sodipodi:role="line"
               id="tspan167">arquiteto</tspan></text>
</g><g
           id="g171"><text
             transform="matrix(1,0,0,-1,114.6,39.15)"
             style="font-variant:normal;font-weight:normal;font-size:13px;font-family:LucidaSansUnicode;-inkscape-font-specification:LucidaSansUnicode;writing-mode:lr-tb;fill:#000000;fill-opacity:1;fill-rule:nonzero;stroke:none"
             id="text175"><tspan
               x="0 7.1760001 12.493 20.67 28.73 32.487 37.348999 44.59 49.452 57.433998 64.947998 72.189003 79.703003 87.763 93.080002 101.257 108.433 116.493 120.25 126.867 131.729"
               y="0"
               sodipodi:role="line"
               id="tspan173">arquiteto-e-urbanista</tspan></text>
</g><g
           id="g177"><text
             transform="matrix(1,0,0,-1,386.45,62.8)"
             style="font-variant:normal;font-weight:normal;font-size:13px;font-family:LucidaSansUnicode;-inkscape-font-specification:LucidaSansUnicode;writing-mode:lr-tb;fill:#000000;fill-opacity:1;fill-rule:nonzero;stroke:none"
             id="text181"><tspan
               x="0 7.1760001 12.493 20.67 28.73 32.487 37.348999 44.59 49.452 56.627998 64.141998 70.797997 78.779999 86.762001 92.079002 100.256 107.497 115.557 122.733 130.91 138.892 144.209"
               y="0"
               sodipodi:role="line"
               id="tspan179">arquiteta-coordenadora</tspan></text>
</g><g
           id="g183"><text
             transform="matrix(1,0,0,-1,241.9,219.6)"
             style="font-variant:normal;font-weight:normal;font-size:13px;font-family:LucidaSansUnicode;-inkscape-font-specification:LucidaSansUnicode;writing-mode:lr-tb;fill:#000000;fill-opacity:1;fill-rule:nonzero;stroke:none"
             id="text187"><tspan
               x="0 6.6560001 14.638 22.620001 27.937 36.113998 43.355 51.415001 58.591 66.767998 74.75 80.067001 87.581001 95.758003 102.999 110.513 118.69 124.007 131.989 135.94099 143.18201 148.04401 156.026"
               y="0"
               sodipodi:role="line"
               id="tspan185"
               style="-inkscape-font-specification:'LucidaSansUnicode Bold';font-family:LucidaSansUnicode;font-weight:bold;font-style:normal;font-stretch:normal;font-variant:normal;fill:#800000">coordenador-de-projetos</tspan></text>
</g><g
           id="g189"><text
             transform="matrix(1,0,0,-1,203.05,-43.5)"
             style="font-variant:normal;font-weight:normal;font-size:13px;font-family:LucidaSansUnicode;-inkscape-font-specification:LucidaSansUnicode;writing-mode:lr-tb;fill:#000000;fill-opacity:1;fill-rule:nonzero;stroke:none"
             id="text193"><tspan
               x="0 7.2410002 13.858 18.719999 25.896 33.994999 37.751999 44.928001 50.244999 54.001999 61.984001 69.498001 77.675003 84.916 92.43 99.606003 104.923 113.1 121.16 124.917 129.77901 137.02 141.882 149.942 155.259"
               y="0"
               sodipodi:role="line"
               id="tspan191">estagiario-de-arquitetura</tspan></text>
</g><g
           id="g195"><text
             transform="matrix(1,0,0,-1,142.65,161.05)"
             style="font-variant:normal;font-weight:normal;font-size:12px;font-family:LucidaSansUnicode;-inkscape-font-specification:LucidaSansUnicode;writing-mode:lr-tb;fill:#000000;fill-opacity:1;fill-rule:nonzero;stroke:none"
             id="text199"><tspan
               x="0 6.6240001 11.532 19.08 26.52 29.988001 34.476002 41.16 45.647999 53.015999 59.952 67.5 72.407997 79.776001 83.424004 90.108002 94.596001 98.064003 104.172 108.66"
               y="0"
               sodipodi:role="line"
               id="tspan197">arquiteto-projetista</tspan></text>
</g><g
           id="g201"><text
             transform="matrix(1,0,0,-1,317.95,-30.65)"
             style="font-variant:normal;font-weight:normal;font-size:12px;font-family:LucidaSansUnicode;-inkscape-font-specification:LucidaSansUnicode;writing-mode:lr-tb;fill:#000000;fill-opacity:1;fill-rule:nonzero;stroke:none"
             id="text205"><tspan
               x="0 6.6240001 11.532 19.08 26.52 29.988001 34.476002 41.16 45.647999 52.271999 59.208 66.755997 73.440002 80.375999 87.924004 92.832001 100.2 103.848 110.532 115.02 122.388"
               y="0"
               sodipodi:role="line"
               id="tspan203">arquiteta-de-projetos</tspan></text>
</g><g
           id="g207"><text
             transform="matrix(1,0,0,-1,347,174.5)"
             style="font-variant:normal;font-weight:normal;font-size:12px;font-family:LucidaSansUnicode;-inkscape-font-specification:LucidaSansUnicode;writing-mode:lr-tb;fill:#000000;fill-opacity:1;fill-rule:nonzero;stroke:none"
             id="text211"><tspan
               x="0 7.5479999 12.456 19.823999 23.472 30.156 34.644001 38.112 44.220001 48.708"
               y="0"
               sodipodi:role="line"
               id="tspan209">projetista</tspan></text>
</g></g></g></g></svg>