<?xml version="1.0" encoding="UTF-8" standalone="no"?>
<!-- Created with Inkscape (http://www.inkscape.org/) -->

<svg
   xmlns:dc="http://purl.org/dc/elements/1.1/"
   xmlns:cc="http://creativecommons.org/ns#"
   xmlns:rdf="http://www.w3.org/1999/02/22-rdf-syntax-ns#"
   xmlns:svg="http://www.w3.org/2000/svg"
   xmlns="http://www.w3.org/2000/svg"
   xmlns:sodipodi="http://sodipodi.sourceforge.net/DTD/sodipodi-0.dtd"
   xmlns:inkscape="http://www.inkscape.org/namespaces/inkscape"
   version="1.1"
   id="svg213"
   xml:space="preserve"
   width="670.66669"
   height="645.33331"
   viewBox="0 0 670.66669 645.33331"
   sodipodi:docname="ex-coordenador-de-projetos-software2.svg"
   inkscape:version="0.92.2 5c3e80d, 2017-08-06"><metadata
     id="metadata219"><rdf:RDF><cc:Work
         rdf:about=""><dc:format>image/svg+xml</dc:format><dc:type
           rdf:resource="http://purl.org/dc/dcmitype/StillImage" /><dc:title></dc:title></cc:Work></rdf:RDF></metadata><defs
     id="defs217" /><sodipodi:namedview
     pagecolor="#ffffff"
     bordercolor="#666666"
     borderopacity="1"
     objecttolerance="10"
     gridtolerance="10"
     guidetolerance="10"
     inkscape:pageopacity="0"
     inkscape:pageshadow="2"
     inkscape:window-width="1311"
     inkscape:window-height="704"
     id="namedview215"
     showgrid="false"
     inkscape:zoom="0.73140498"
     inkscape:cx="401.72207"
     inkscape:cy="230.42776"
     inkscape:window-x="55"
     inkscape:window-y="30"
     inkscape:window-maximized="1"
     inkscape:current-layer="g491" /><g
     id="g221"
     inkscape:groupmode="layer"
     inkscape:label="ex-coordenador-de-projetos-software"
     transform="matrix(1.3333333,0,0,-1.3333333,0,645.33333)"><g
       id="g223" /><g
       id="g225"
       transform="matrix(1,0,0,-1,-79.75,457.85)"><g
         id="g227"><path
           d="M 391.67,230.26 C 373.46,208.68 360.59,187.83 353.08,167.7 l 1.9,-0.61 -5.45,-8.75 0.69,10.28 1.91,-0.61 c 6.98,20.56 19.91,41.53 38.8,62.93"
           style="fill:#99ccff;fill-opacity:1;fill-rule:nonzero;stroke:none"
           id="path229"
           inkscape:connector-curvature="0" /></g><g
         id="g231"><path
           d="m 288.67,406.16 c -23.22,5.31 -43.19,6.37 -59.9,3.17 l 0.5,-1.96 h -10.39 l 9.15,4.91 0.49,-1.96 c 16.86,3.89 37,2.83 60.41,-3.18"
           style="fill:#99ccff;fill-opacity:1;fill-rule:nonzero;stroke:none"
           id="path233"
           inkscape:connector-curvature="0" /></g><g
         id="g235"><path
           d="m 284.12,191.35 2.23,-17.35 -1.02,-0.13 -2.22,17.35 c -3.1,19.15 -9.14,37.27 -18.12,54.36 l -1.76,-1 -2.33,10.27 4.98,-8.76 c 9.66,-16.98 15.74,-35.23 18.24,-54.74"
           style="fill:#99ccff;fill-opacity:1;fill-rule:nonzero;stroke:none"
           id="path237"
           inkscape:connector-curvature="0" /></g><g
         id="g239"><path
           d="m 165.61,357.14 -13.81,9.66 0.59,0.84 13.81,-9.65 c 26.66,-17.85 49.69,-39.47 69.09,-64.87 l 1.59,1.26 3.9,-9.8 -6.29,7.9 c -19.81,24.85 -42.77,46.4 -68.88,64.66"
           style="fill:#99ccff;fill-opacity:1;fill-rule:nonzero;stroke:none"
           id="path241"
           inkscape:connector-curvature="0" /></g><g
         id="g243"><path
           d="m 234.26,139.61 -18.51,-21.71 -0.79,0.68 18.51,21.71 c 9.84,12.53 22.28,21.83 37.31,27.88 l -0.83,1.86 10.51,1.33 -9.25,-4.14 c -14.47,-6.49 -26.79,-15.69 -36.95,-27.61"
           style="fill:#96c9fc;fill-opacity:1;fill-rule:nonzero;stroke:none"
           id="path245"
           inkscape:connector-curvature="0" /></g><g
         id="g247"><path
           d="m 124.35,304.82 -17.55,1.78 0.11,1.05 17.54,-1.77 c 35.16,-2.91 69.04,-10.99 101.63,-24.26 l 0.74,1.92 8.38,-6.57 -9.5,3.67 c -32.67,12.59 -66.45,20.65 -101.35,24.18"
           style="fill:#96c9fc;fill-opacity:1;fill-rule:nonzero;stroke:none"
           id="path249"
           inkscape:connector-curvature="0" /></g><g
         id="g251"><path
           d="M 264.37,-0.1174 C 255.25,36.4 243.33,68.13 228.6,95.07 l -1.8,-1.06 -2.96,10.19 7.49,-7.52 -1.8,-1.06 c 15.39,-26.78 27.36,-58.61 35.9,-95.5026"
           style="fill:#96c9fc;fill-opacity:1;fill-rule:nonzero;stroke:none"
           id="path253"
           inkscape:connector-curvature="0" /></g><g
         id="g255"><path
           d="M 279.27,281.45 252,270.5 l -0.43,1.07 27.27,10.95 c 26.95,11.52 55.13,18.06 84.54,19.62 l -0.16,2.14 10.69,-2.5 -10.44,-0.79 c -29.13,-2.19 -57.19,-8.7 -84.2,-19.54"
           style="fill:#94c7fa;fill-opacity:1;fill-rule:nonzero;stroke:none"
           id="path257"
           inkscape:connector-curvature="0" /></g><g
         id="g259"><path
           d="M 234.49,292.48 252,270.5 l -0.9,-0.72 -17.51,21.98 c -20.21,24.3 -43.08,45.78 -68.64,64.44 l -1.23,-1.76 -6.7,8.71 8.59,-6.01 c 26.11,-18.26 49.07,-39.81 68.88,-64.66"
           style="fill:#94c7fa;fill-opacity:1;fill-rule:nonzero;stroke:none"
           id="path261"
           inkscape:connector-curvature="0" /></g><g
         id="g263"><path
           d="m 252.12,269.93 c -34.64,-8.25 -64.36,-19.42 -89.16,-33.52 l 1.14,-1.84 -10.41,-3.2 7.52,7.88 1.13,-1.85 c 24.67,14.78 54.51,26 89.54,33.67"
           style="fill:#91c5f8;fill-opacity:1;fill-rule:nonzero;stroke:none"
           id="path265"
           inkscape:connector-curvature="0" /></g><g
         id="g267"><path
           d="m 225.7,280.64 26.3,-10.14 -0.43,-1.1 -26.29,10.13 c -32.74,11.92 -66.43,19.96 -101.05,24.12 l -0.22,-2.17 -10.19,4.41 10.53,-1.07 c 34.9,-3.53 68.68,-11.59 101.35,-24.18"
           style="fill:#91c5f8;fill-opacity:1;fill-rule:nonzero;stroke:none"
           id="path269"
           inkscape:connector-curvature="0" /></g><g
         id="g271"><path
           d="m 107.26,306.99 c 18.92,-20.67 30.55,-41.15 34.86,-61.46 l 2.12,0.56 0.03,-10.97 -5.42,9.55 2.12,0.56 c -4.86,19.85 -16.4,40.18 -34.63,60.98"
           style="fill:#91c5f8;fill-opacity:1;fill-rule:nonzero;stroke:none"
           id="path273"
           inkscape:connector-curvature="0" /></g><g
         id="g275"><path
           d="m 346.14,147.08 c -39.46,-3.29 -74.53,-10.1 -105.21,-20.43 l 0.78,-2.09 -11.06,-1.09 9.07,6.43 0.78,-2.09 c 30.63,11.01 65.82,17.84 105.56,20.51"
           style="fill:#8fc3f6;fill-opacity:1;fill-rule:nonzero;stroke:none"
           id="path277"
           inkscape:connector-curvature="0" /></g><g
         id="g279"><path
           d="M 273.92,296.71 252,270.5 l -0.95,0.8 21.91,26.21 c 19.85,24.76 43.1,45.89 69.75,63.37 l -1.26,1.84 10.82,3.21 -8.86,-6.07 c -26.09,-17.9 -49.26,-38.94 -69.49,-63.15"
           style="fill:#8fc3f6;fill-opacity:1;fill-rule:nonzero;stroke:none"
           id="path281"
           inkscape:connector-curvature="0" /></g><g
         id="g283"><path
           d="m 219.07,148.57 -3.32,-30.67 -1.31,0.14 3.32,30.67 c 2.9,32.84 10.49,64.56 22.76,95.16 l -2.15,0.82 7.26,8.97 -3.88,-10.25 C 230.16,212.76 222.6,181.14 219.07,148.57"
           style="fill:#8cc1f4;fill-opacity:1;fill-rule:nonzero;stroke:none"
           id="path285"
           inkscape:connector-curvature="0" /></g><g
         id="g287"
         style="opacity:0.7"><path
           d="M 265.88,246.09 252,270.5 l 1.17,0.67 13.88,-24.41 c 10.36,-16.91 16.49,-35.32 18.41,-55.24 l 2.3,0.3 -2.23,-11.42 -1.41,10.95 c -2.5,19.51 -8.58,37.76 -18.24,54.74"
           style="fill:#8cc1f4;fill-opacity:1;fill-rule:nonzero;stroke:none"
           id="path289"
           inkscape:connector-curvature="0" /></g><g
         id="g291"
         style="opacity:0.7"><path
           d="m 252.34,269.9 c -42.18,-25.43 -78.6,-52.38 -109.25,-80.84 l 1.63,-1.67 -10.05,-5.62 5.82,9.94 1.64,-1.67 c 30.32,29.06 66.83,56.08 109.53,81.06"
           style="fill:#8abff2;fill-opacity:1;fill-rule:nonzero;stroke:none"
           id="path293"
           inkscape:connector-curvature="0" /></g><g
         id="g295"><path
           d="m 193.19,102.3 22.56,15.6 0.79,-1.15 -22.56,-15.6 C 171.52,84.83 151.63,65.79 134.32,44.03 l 1.88,-1.43 -9.75,-6.63 6.75,8.9 c 16.98,22.37 36.97,41.52 59.99,57.43"
           style="fill:#8abff2;fill-opacity:1;fill-rule:nonzero;stroke:none"
           id="path297"
           inkscape:connector-curvature="0" /></g><g
         id="g299"><path
           d="m 363.47,300.99 15.43,1.16 0.11,-1.47 -15.43,-1.16 c -28.8,-2.81 -56.72,-9.29 -83.76,-19.44 l 0.91,-2.26 -12.03,-0.61 10.57,4.24 c 27.01,10.84 55.07,17.35 84.2,19.54"
           style="fill:#85baed;fill-opacity:1;fill-rule:nonzero;stroke:none"
           id="path301"
           inkscape:connector-curvature="0" /></g><g
         id="g303"><path
           d="m 375.28,237.91 16.02,-7.31 -0.63,-1.37 -16.01,7.31 c -30.17,13.06 -61.42,22.39 -93.77,28.01 l -0.37,-2.43 -10.73,5.65 11.33,-1.73 c 32.66,-5.01 64.04,-14.38 94.16,-28.13"
           style="fill:#85baed;fill-opacity:1;fill-rule:nonzero;stroke:none"
           id="path305"
           inkscape:connector-curvature="0" /></g><g
         id="g307"><path
           d="m 358.79,370.2 c -18.47,15.54 -35.5,25.86 -51.12,30.94 l -0.59,-2.39 -10.35,5.91 11.91,0.33 -0.6,-2.39 c 16.13,-4.56 33.38,-14.99 51.77,-31.3"
           style="fill:#85baed;fill-opacity:1;fill-rule:nonzero;stroke:none"
           id="path309"
           inkscape:connector-curvature="0" /></g><g
         id="g311"><path
           d="m 133.2,44.87 -9.8,-12.92 -1.22,0.92 9.81,12.93 c 16.63,22.98 36.74,42.24 60.33,57.76 l -1.4,2.03 11.74,3.26 -9.47,-6.55 C 170.17,86.39 150.18,67.24 133.2,44.87"
           style="fill:#85baed;fill-opacity:1;fill-rule:nonzero;stroke:none"
           id="path313"
           inkscape:connector-curvature="0" /></g><g
         id="g315"><path
           d="m 281.12,266.04 -29.12,4.46 0.24,1.57 29.12,-4.46 c 32.97,-4.39 64.5,-13.81 94.58,-28.25 l 1.05,2.29 8.92,-8.59 -10.63,4.85 c -30.12,13.75 -61.5,23.12 -94.16,28.13"
           style="fill:#83b8eb;fill-opacity:1;fill-rule:nonzero;stroke:none"
           id="path317"
           inkscape:connector-curvature="0" /></g><g
         id="g319"><path
           d="m 204.05,143.96 11.7,-26.06 -1.47,-0.66 -11.7,26.06 c -11.65,24.38 -26.26,46.87 -43.83,67.45 l -1.89,-1.69 -4.73,11.5 7.82,-8.73 c 18.24,-20.37 32.94,-42.99 44.1,-67.87"
           style="fill:#80b6e9;fill-opacity:1;fill-rule:nonzero;stroke:none"
           id="path321"
           inkscape:connector-curvature="0" /></g><g
         id="g323"><path
           d="m 246.82,302.43 5.18,-31.93 -1.78,-0.29 -5.18,31.93 c -5.43,29.36 -14.28,57.67 -26.57,84.93 l -2.42,-1.16 -1.19,12.92 5.24,-10.99 c 12.99,-27.24 21.9,-55.71 26.72,-85.41"
           style="fill:#79afe2;fill-opacity:1;fill-rule:nonzero;stroke:none"
           id="path325"
           inkscape:connector-curvature="0" /></g><g
         id="g327"><path
           d="m 193.6,138.58 22.15,-20.68 -1.25,-1.34 -22.16,20.67 c -13.47,11.7 -28.42,21.09 -44.84,28.17 l -0.99,-2.53 -9.76,8.69 11.42,-4.45 c 17.01,-6.63 32.15,-16.14 45.43,-28.53"
           style="fill:#79afe2;fill-opacity:1;fill-rule:nonzero;stroke:none"
           id="path329"
           inkscape:connector-curvature="0" /></g><g
         id="g331"><path
           d="m 271.21,167.22 15.14,6.78 0.82,-1.83 -15.14,-6.79 c -13.77,-6.83 -25.85,-15.85 -36.24,-27.07 l 2.16,-1.84 -11.88,-6.46 8.19,9.6 c 10.16,11.92 22.48,21.12 36.95,27.61"
           style="fill:#72a9dc;fill-opacity:1;fill-rule:nonzero;stroke:none"
           id="path333"
           inkscape:connector-curvature="0" /></g><g
         id="g335"
         style="opacity:0.7"><path
           d="m 159.95,211.83 -13.5,15.07 1.51,1.35 13.5,-15.07 c 18.93,-20.19 33.75,-42.98 44.44,-68.39 l 2.6,1.16 0.74,-13.53 -5.19,11.54 c -11.16,24.88 -25.86,47.5 -44.1,67.87"
           style="fill:#72a9dc;fill-opacity:1;fill-rule:nonzero;stroke:none"
           id="path337"
           inkscape:connector-curvature="0" /></g><g
         id="g339"><path
           d="M 256.75,305.28 252,270.5 l -2.15,0.29 4.75,34.78 c 3.27,28.79 11.14,56.35 23.6,82.68 l -2.69,1.2 9.96,9.73 -5.28,-11.82 c -11.75,-26.28 -19.56,-53.65 -23.44,-82.08"
           style="fill:#6da5d8;fill-opacity:1;fill-rule:nonzero;stroke:none"
           id="path341"
           inkscape:connector-curvature="0" /></g><g
         id="g343"><path
           d="m 333.19,170.26 12.91,-22.56 -2.51,-1.44 -12.91,22.56 c -16.59,27.68 -35.96,53.23 -58.12,76.67 l -2.42,-2.38 -5.51,14.56 9.99,-10.15 c 22.85,-23.21 42.37,-48.97 58.57,-77.26"
           style="fill:#508bbe;fill-opacity:1;fill-rule:nonzero;stroke:none"
           id="path345"
           inkscape:connector-curvature="0" /></g><g
         id="g347"><path
           d="m 220.1,387.84 -8.45,17.71 2.66,1.27 8.45,-17.71 c 13.74,-27.33 22.73,-56.07 26.97,-86.21 l 3.39,0.55 -4,-15.18 -2.3,14.16 c -4.82,29.7 -13.73,58.17 -26.72,85.41"
           style="fill:#4d89bc;fill-opacity:1;fill-rule:nonzero;stroke:none"
           id="path349"
           inkscape:connector-curvature="0" /></g><g
         id="g351"><path
           d="m 148.17,167.11 -20.37,7.94 1.08,2.78 20.37,-7.94 c 17.74,-6.26 33.2,-15.97 46.38,-29.13 l 2.36,2.52 6.13,-14.52 -10.52,9.82 c -13.28,12.39 -28.42,21.9 -45.43,28.53"
           style="fill:#4d89bc;fill-opacity:1;fill-rule:nonzero;stroke:none"
           id="path353"
           inkscape:connector-curvature="0" /></g><g
         id="g355"><path
           d="M 274.62,247.52 252,270.5 l 2.32,2.28 22.62,-22.98 c 23.55,-23.01 43.24,-48.98 59.07,-77.93 l 3.13,1.8 1.41,-16.27 -7.36,12.86 c -16.2,28.29 -35.72,54.05 -58.57,77.26"
           style="fill:#4480b3;fill-opacity:1;fill-rule:nonzero;stroke:none"
           id="path357"
           inkscape:connector-curvature="0" /></g><g
         id="g359"
         style="opacity:0.6"><path
           d="m 241.75,243.41 10.25,27.09 3.12,-1.18 -10.25,-27.09 c -10.86,-30.54 -18.35,-61.88 -22.48,-94.02 l 3.63,-0.39 -8.56,-14.1 1.61,14.85 c 3.53,32.57 11.09,64.19 22.68,94.84"
           style="fill:#3f7caf;fill-opacity:1;fill-rule:nonzero;stroke:none"
           id="path361"
           inkscape:connector-curvature="0" /></g><g
         id="g363"><path
           d="m 343.41,359.86 15.89,10.89 2.39,-3.49 -15.89,-10.89 C 320.49,338.26 297.61,317.47 277.16,294 l 3.15,-2.63 -16.76,-7.06 10.37,12.4 c 20.23,24.21 43.4,45.25 69.49,63.15"
           style="fill:#1d5d90;fill-opacity:1;fill-rule:nonzero;stroke:none"
           id="path365"
           inkscape:connector-curvature="0" /></g><g
         id="g367"><path
           d="m 280.19,387.36 8.61,19.29 4.57,-2.04 -8.62,-19.28 C 273.82,359.35 266.14,332.44 261.7,304.6 l 4.43,-0.6 -11.7,-15.67 2.32,16.95 c 3.88,28.43 11.69,55.8 23.44,82.08"
           style="fill:#004477;fill-opacity:1;fill-rule:nonzero;stroke:none"
           id="path369"
           inkscape:connector-curvature="0" /></g><g
         id="g371"><path
           d="m 296.98,406.65 c 0,4.52 -3.66,8.18 -8.18,8.18 -4.52,0 -8.18,-3.66 -8.18,-8.18 0,-4.52 3.66,-8.18 8.18,-8.18 4.52,0 8.18,3.66 8.18,8.18"
           style="fill:#ff9900;fill-opacity:1;fill-rule:nonzero;stroke:#ed8e00;stroke-width:0.75;stroke-linecap:butt;stroke-linejoin:miter;stroke-miterlimit:10;stroke-dasharray:none;stroke-opacity:1"
           id="path373"
           inkscape:connector-curvature="0" /></g><g
         id="g375"><path
           d="m 296.98,406.65 c 0,4.52 -3.66,8.18 -8.18,8.18 -4.52,0 -8.18,-3.66 -8.18,-8.18 0,-4.52 3.66,-8.18 8.18,-8.18 4.52,0 8.18,3.66 8.18,8.18"
           style="fill:#c45e00;fill-opacity:1;fill-rule:nonzero;stroke:none"
           id="path377"
           inkscape:connector-curvature="0" /></g><g
         id="g379"><path
           d="m 270,270.5 c 0,9.94 -8.06,18 -18,18 -9.94,0 -18,-8.06 -18,-18 0,-9.94 8.06,-18 18,-18 9.94,0 18,8.06 18,18"
           style="fill:#ff9900;fill-opacity:1;fill-rule:nonzero;stroke:#ed8e00;stroke-width:0.75;stroke-linecap:butt;stroke-linejoin:miter;stroke-miterlimit:10;stroke-dasharray:none;stroke-opacity:1"
           id="path381"
           inkscape:connector-curvature="0" /></g><g
         id="g383"><path
           d="m 270,270.5 c 0,9.94 -8.06,18 -18,18 -9.94,0 -18,-8.06 -18,-18 0,-9.94 8.06,-18 18,-18 9.94,0 18,8.06 18,18"
           style="fill:#660000;fill-opacity:1;fill-rule:nonzero;stroke:none"
           id="path385"
           inkscape:connector-curvature="0" /></g><g
         id="g387"><path
           d="m 367.82,370.75 c 0,4.71 -3.81,8.52 -8.52,8.52 -4.71,0 -8.52,-3.81 -8.52,-8.52 0,-4.71 3.81,-8.52 8.52,-8.52 4.71,0 8.52,3.81 8.52,8.52"
           style="fill:#ff9900;fill-opacity:1;fill-rule:nonzero;stroke:#ed8e00;stroke-width:0.75;stroke-linecap:butt;stroke-linejoin:miter;stroke-miterlimit:10;stroke-dasharray:none;stroke-opacity:1"
           id="path389"
           inkscape:connector-curvature="0" /></g><g
         id="g391"><path
           d="m 367.82,370.75 c 0,4.71 -3.81,8.52 -8.52,8.52 -4.71,0 -8.52,-3.81 -8.52,-8.52 0,-4.71 3.81,-8.52 8.52,-8.52 4.71,0 8.52,3.81 8.52,8.52"
           style="fill:#c25c00;fill-opacity:1;fill-rule:nonzero;stroke:none"
           id="path393"
           inkscape:connector-curvature="0" /></g><g
         id="g395"><path
           d="m 231.66,117.9 c 0,8.79 -7.12,15.91 -15.91,15.91 -8.79,0 -15.91,-7.12 -15.91,-15.91 0,-8.79 7.12,-15.91 15.91,-15.91 8.79,0 15.91,7.12 15.91,15.91"
           style="fill:#ff9900;fill-opacity:1;fill-rule:nonzero;stroke:#ed8e00;stroke-width:0.75;stroke-linecap:butt;stroke-linejoin:miter;stroke-miterlimit:10;stroke-dasharray:none;stroke-opacity:1"
           id="path397"
           inkscape:connector-curvature="0" /></g><g
         id="g399"><path
           d="m 231.66,117.9 c 0,8.79 -7.12,15.91 -15.91,15.91 -8.79,0 -15.91,-7.12 -15.91,-15.91 0,-8.79 7.12,-15.91 15.91,-15.91 8.79,0 15.91,7.12 15.91,15.91"
           style="fill:#791300;fill-opacity:1;fill-rule:nonzero;stroke:none"
           id="path401"
           inkscape:connector-curvature="0" /></g><g
         id="g403"><path
           d="m 357.28,147.7 c 0,6.17 -5.01,11.18 -11.18,11.18 -6.17,0 -11.18,-5.01 -11.18,-11.18 0,-6.17 5.01,-11.18 11.18,-11.18 6.17,0 11.18,5.01 11.18,11.18"
           style="fill:#ff9900;fill-opacity:1;fill-rule:nonzero;stroke:#ed8e00;stroke-width:0.75;stroke-linecap:butt;stroke-linejoin:miter;stroke-miterlimit:10;stroke-dasharray:none;stroke-opacity:1"
           id="path405"
           inkscape:connector-curvature="0" /></g><g
         id="g407"><path
           d="m 357.28,147.7 c 0,6.17 -5.01,11.18 -11.18,11.18 -6.17,0 -11.18,-5.01 -11.18,-11.18 0,-6.17 5.01,-11.18 11.18,-11.18 6.17,0 11.18,5.01 11.18,11.18"
           style="fill:#a74100;fill-opacity:1;fill-rule:nonzero;stroke:none"
           id="path409"
           inkscape:connector-curvature="0" /></g><g
         id="g411"><path
           d="m 137.41,175.05 c 0,5.31 -4.3,9.61 -9.61,9.61 -5.31,0 -9.61,-4.3 -9.61,-9.61 0,-5.31 4.3,-9.61 9.61,-9.61 5.31,0 9.61,4.3 9.61,9.61"
           style="fill:#ff9900;fill-opacity:1;fill-rule:nonzero;stroke:#ed8e00;stroke-width:0.75;stroke-linecap:butt;stroke-linejoin:miter;stroke-miterlimit:10;stroke-dasharray:none;stroke-opacity:1"
           id="path413"
           inkscape:connector-curvature="0" /></g><g
         id="g415"><path
           d="m 137.41,175.05 c 0,5.31 -4.3,9.61 -9.61,9.61 -5.31,0 -9.61,-4.3 -9.61,-9.61 0,-5.31 4.3,-9.61 9.61,-9.61 5.31,0 9.61,4.3 9.61,9.61"
           style="fill:#b65000;fill-opacity:1;fill-rule:nonzero;stroke:none"
           id="path417"
           inkscape:connector-curvature="0" /></g><g
         id="g419"><path
           d="m 219.1,405.55 c 0,4.11 -3.34,7.45 -7.45,7.45 -4.11,0 -7.45,-3.34 -7.45,-7.45 0,-4.11 3.34,-7.45 7.45,-7.45 4.11,0 7.45,3.34 7.45,7.45"
           style="fill:#ff9900;fill-opacity:1;fill-rule:nonzero;stroke:#ed8e00;stroke-width:0.75;stroke-linecap:butt;stroke-linejoin:miter;stroke-miterlimit:10;stroke-dasharray:none;stroke-opacity:1"
           id="path421"
           inkscape:connector-curvature="0" /></g><g
         id="g423"><path
           d="m 219.1,405.55 c 0,4.11 -3.34,7.45 -7.45,7.45 -4.11,0 -7.45,-3.34 -7.45,-7.45 0,-4.11 3.34,-7.45 7.45,-7.45 4.11,0 7.45,3.34 7.45,7.45"
           style="fill:#cc6600;fill-opacity:1;fill-rule:nonzero;stroke:none"
           id="path425"
           inkscape:connector-curvature="0" /></g><g
         id="g427"><path
           d="m 154.96,226.9 c 0,4.7 -3.81,8.51 -8.51,8.51 -4.7,0 -8.51,-3.81 -8.51,-8.51 0,-4.7 3.81,-8.51 8.51,-8.51 4.7,0 8.51,3.81 8.51,8.51"
           style="fill:#ff9900;fill-opacity:1;fill-rule:nonzero;stroke:#ed8e00;stroke-width:0.75;stroke-linecap:butt;stroke-linejoin:miter;stroke-miterlimit:10;stroke-dasharray:none;stroke-opacity:1"
           id="path429"
           inkscape:connector-curvature="0" /></g><g
         id="g431"><path
           d="m 154.96,226.9 c 0,4.7 -3.81,8.51 -8.51,8.51 -4.7,0 -8.51,-3.81 -8.51,-8.51 0,-4.7 3.81,-8.51 8.51,-8.51 4.7,0 8.51,3.81 8.51,8.51"
           style="fill:#c25c00;fill-opacity:1;fill-rule:nonzero;stroke:none"
           id="path433"
           inkscape:connector-curvature="0" /></g><g
         id="g435"><path
           d="m 292.8,174 c 0,3.56 -2.89,6.45 -6.45,6.45 -3.56,0 -6.45,-2.89 -6.45,-6.45 0,-3.56 2.89,-6.45 6.45,-6.45 3.56,0 6.45,2.89 6.45,6.45"
           style="fill:#ff9900;fill-opacity:1;fill-rule:nonzero;stroke:#ed8e00;stroke-width:0.75;stroke-linecap:butt;stroke-linejoin:miter;stroke-miterlimit:10;stroke-dasharray:none;stroke-opacity:1"
           id="path437"
           inkscape:connector-curvature="0" /></g><g
         id="g439"><path
           d="m 292.8,174 c 0,3.56 -2.89,6.45 -6.45,6.45 -3.56,0 -6.45,-2.89 -6.45,-6.45 0,-3.56 2.89,-6.45 6.45,-6.45 3.56,0 6.45,2.89 6.45,6.45"
           style="fill:#d56f00;fill-opacity:1;fill-rule:nonzero;stroke:none"
           id="path441"
           inkscape:connector-curvature="0" /></g><g
         id="g443"><path
           d="m 397.23,230.6 c 0,3.28 -2.65,5.93 -5.93,5.93 -3.28,0 -5.93,-2.65 -5.93,-5.93 0,-3.28 2.65,-5.93 5.93,-5.93 3.28,0 5.93,2.65 5.93,5.93"
           style="fill:#ff9900;fill-opacity:1;fill-rule:nonzero;stroke:#ed8e00;stroke-width:0.75;stroke-linecap:butt;stroke-linejoin:miter;stroke-miterlimit:10;stroke-dasharray:none;stroke-opacity:1"
           id="path445"
           inkscape:connector-curvature="0" /></g><g
         id="g447"><path
           d="m 397.23,230.6 c 0,3.28 -2.65,5.93 -5.93,5.93 -3.28,0 -5.93,-2.65 -5.93,-5.93 0,-3.28 2.65,-5.93 5.93,-5.93 3.28,0 5.93,2.65 5.93,5.93"
           style="fill:#da7400;fill-opacity:1;fill-rule:nonzero;stroke:none"
           id="path449"
           inkscape:connector-curvature="0" /></g><g
         id="g451"><path
           d="m 128.45,31.95 c 0,2.79 -2.26,5.05 -5.05,5.05 -2.79,0 -5.05,-2.26 -5.05,-5.05 0,-2.79 2.26,-5.05 5.05,-5.05 2.79,0 5.05,2.26 5.05,5.05"
           style="fill:#ff9900;fill-opacity:1;fill-rule:nonzero;stroke:#ed8e00;stroke-width:0.75;stroke-linecap:butt;stroke-linejoin:miter;stroke-miterlimit:10;stroke-dasharray:none;stroke-opacity:1"
           id="path453"
           inkscape:connector-curvature="0" /></g><g
         id="g455"><path
           d="m 128.45,31.95 c 0,2.79 -2.26,5.05 -5.05,5.05 -2.79,0 -5.05,-2.26 -5.05,-5.05 0,-2.79 2.26,-5.05 5.05,-5.05 2.79,0 5.05,2.26 5.05,5.05"
           style="fill:#e47e00;fill-opacity:1;fill-rule:nonzero;stroke:none"
           id="path457"
           inkscape:connector-curvature="0" /></g><g
         id="g459"><path
           d="m 383.9,302.15 c 0,2.76 -2.24,5 -5,5 -2.76,0 -5,-2.24 -5,-5 0,-2.76 2.24,-5 5,-5 2.76,0 5,2.24 5,5"
           style="fill:#ff9900;fill-opacity:1;fill-rule:nonzero;stroke:#ed8e00;stroke-width:0.75;stroke-linecap:butt;stroke-linejoin:miter;stroke-miterlimit:10;stroke-dasharray:none;stroke-opacity:1"
           id="path461"
           inkscape:connector-curvature="0" /></g><g
         id="g463"><path
           d="m 383.9,302.15 c 0,2.76 -2.24,5 -5,5 -2.76,0 -5,-2.24 -5,-5 0,-2.76 2.24,-5 5,-5 2.76,0 5,2.24 5,5"
           style="fill:#e47e00;fill-opacity:1;fill-rule:nonzero;stroke:none"
           id="path465"
           inkscape:connector-curvature="0" /></g><g
         id="g467"><path
           d="m 113.86,306.6 c 0,3.9 -3.16,7.06 -7.06,7.06 -3.9,0 -7.06,-3.16 -7.06,-7.06 0,-3.9 3.16,-7.06 7.06,-7.06 3.9,0 7.06,3.16 7.06,7.06"
           style="fill:#ff9900;fill-opacity:1;fill-rule:nonzero;stroke:#ed8e00;stroke-width:0.75;stroke-linecap:butt;stroke-linejoin:miter;stroke-miterlimit:10;stroke-dasharray:none;stroke-opacity:1"
           id="path469"
           inkscape:connector-curvature="0" /></g><g
         id="g471"><path
           d="m 113.86,306.6 c 0,3.9 -3.16,7.06 -7.06,7.06 -3.9,0 -7.06,-3.16 -7.06,-7.06 0,-3.9 3.16,-7.06 7.06,-7.06 3.9,0 7.06,3.16 7.06,7.06"
           style="fill:#d06a00;fill-opacity:1;fill-rule:nonzero;stroke:none"
           id="path473"
           inkscape:connector-curvature="0" /></g><g
         id="g475"><path
           d="m 158.18,366.8 c 0,3.52 -2.86,6.38 -6.38,6.38 -3.52,0 -6.38,-2.86 -6.38,-6.38 0,-3.52 2.86,-6.38 6.38,-6.38 3.52,0 6.38,2.86 6.38,6.38"
           style="fill:#ff9900;fill-opacity:1;fill-rule:nonzero;stroke:#ed8e00;stroke-width:0.75;stroke-linecap:butt;stroke-linejoin:miter;stroke-miterlimit:10;stroke-dasharray:none;stroke-opacity:1"
           id="path477"
           inkscape:connector-curvature="0" /></g><g
         id="g479"><path
           d="m 158.18,366.8 c 0,3.52 -2.86,6.38 -6.38,6.38 -3.52,0 -6.38,-2.86 -6.38,-6.38 0,-3.52 2.86,-6.38 6.38,-6.38 3.52,0 6.38,2.86 6.38,6.38"
           style="fill:#d56f00;fill-opacity:1;fill-rule:nonzero;stroke:none"
           id="path481"
           inkscape:connector-curvature="0" /></g><g
         id="g483"><path
           d="m 271.07,0 c 0,3.41 -2.76,6.17 -6.17,6.17 -3.41,0 -6.17,-2.76 -6.17,-6.17 0,-3.41 2.76,-6.17 6.17,-6.17 3.41,0 6.17,2.76 6.17,6.17"
           style="fill:#ff9900;fill-opacity:1;fill-rule:nonzero;stroke:#ed8e00;stroke-width:0.75;stroke-linecap:butt;stroke-linejoin:miter;stroke-miterlimit:10;stroke-dasharray:none;stroke-opacity:1"
           id="path485"
           inkscape:connector-curvature="0" /></g><g
         id="g487"><path
           d="m 271.07,0 c 0,3.41 -2.76,6.17 -6.17,6.17 -3.41,0 -6.17,-2.76 -6.17,-6.17 0,-3.41 2.76,-6.17 6.17,-6.17 3.41,0 6.17,2.76 6.17,6.17"
           style="fill:#d87200;fill-opacity:1;fill-rule:nonzero;stroke:none"
           id="path489"
           inkscape:connector-curvature="0" /></g><g
         id="g491"
         transform="matrix(1,0,0,-1,0,484)"><g
           id="g493"
           transform="translate(17.028803,16.614731)"><text
             transform="matrix(1,0,0,-1,288.8,56.2)"
             style="font-variant:normal;font-weight:normal;font-size:13px;font-family:LucidaSansUnicode;-inkscape-font-specification:LucidaSansUnicode;writing-mode:lr-tb;fill:#000000;fill-opacity:1;fill-rule:nonzero;stroke:none"
             id="text497"><tspan
               x="0 7.1760001 15.236 22.412001 26.169001 29.926001 36.542999 41.404999 48.581001 56.095001 64.272003 69.588997 77.570999 85.669998 90.987 98.163002 110.292 117.468 125.645 133.627"
               y="0"
               sodipodi:role="line"
               id="tspan495">analista-programador</tspan></text>
</g><g
           id="g499"
           transform="translate(19.57727,17.402018)"><text
             transform="matrix(1,0,0,-1,252,180.55)"
             style="font-variant:normal;font-weight:normal;font-size:15px;font-family:LucidaSansUnicode;-inkscape-font-specification:LucidaSansUnicode;writing-mode:lr-tb;fill:#000000;fill-opacity:1;fill-rule:nonzero;stroke:none"
             id="text503"><tspan
               x="0 8.2799997 17.58 25.860001 30.195 34.529999 42.165001 47.775002 56.055 64.724998 74.160004 82.514999 91.184998 98.82 103.155 110.79 116.4 124.755 138.75 147.03"
               y="0"
               sodipodi:role="line"
               id="tspan501">analista-de-sistemas</tspan></text>
</g><g
           id="g505"
           transform="translate(10.254237,5.1271186)"><text
             transform="matrix(1,0,0,-1,359.3,91.75)"
             style="font-variant:normal;font-weight:normal;font-size:13px;font-family:LucidaSansUnicode;-inkscape-font-specification:LucidaSansUnicode;writing-mode:lr-tb;fill:#000000;fill-opacity:1;fill-rule:nonzero;stroke:none"
             id="text509"><tspan
               x="0 8.177 13.494 21.476 29.575001 34.891998 42.068001 54.196999 61.373001 69.550003 77.531998"
               y="0"
               sodipodi:role="line"
               id="tspan507">programador</tspan></text>
</g><g
           id="g511"
           transform="translate(21.38998,29.003363)"><text
             transform="matrix(1,0,0,-1,215.75,335.2)"
             style="font-variant:normal;font-weight:normal;font-size:15px;font-family:LucidaSansUnicode;-inkscape-font-specification:LucidaSansUnicode;writing-mode:lr-tb;fill:#000000;fill-opacity:1;fill-rule:nonzero;stroke:none"
             id="text515"><tspan
               x="0 9.3450003 17.700001 23.834999 32.189999 41.490002 47.099998 55.455002 64.125 73.559998 81.915001 90.584999 100.02 106.155 115.365 119.925 128.28 133.89 143.10001"
               y="0"
               sodipodi:role="line"
               id="tspan513">gerente-de-projetos</tspan></text>
</g><g
           id="g517"
           transform="translate(14.853551,3.2628783)"><text
             transform="matrix(1,0,0,-1,346.1,312.15)"
             style="font-variant:normal;font-weight:normal;font-size:13px;font-family:LucidaSansUnicode;-inkscape-font-specification:LucidaSansUnicode;writing-mode:lr-tb;fill:#000000;fill-opacity:1;fill-rule:nonzero;stroke:none"
             id="text521"><tspan
               x="0 7.1760001 15.236 22.412001 26.169001 29.926001 36.542999 41.404999 48.581001 56.095001 64.272003 71.513 79.027 87.086998 94.328003 102.427 110.409 117.065 120.822 128.804"
               y="0"
               sodipodi:role="line"
               id="tspan519">analista-de-negocios</tspan></text>
</g><g
           id="g523"><text
             transform="matrix(1,0,0,-1,127.8,286.35)"
             style="font-variant:normal;font-weight:normal;font-size:13px;font-family:LucidaSansUnicode;-inkscape-font-specification:LucidaSansUnicode;writing-mode:lr-tb;fill:#000000;fill-opacity:1;fill-rule:nonzero;stroke:none"
             id="text527"><tspan
               x="0 6.6560001 14.638 22.620001 27.937 36.113998 43.355 51.415001 58.591 66.767998 74.75 80.067001 87.581001 95.758003 102.999 110.513 118.69 124.007 131.989 135.94099 143.18201 148.04401 156.026"
               y="0"
               sodipodi:role="line"
               id="tspan525"
               style="-inkscape-font-specification:'LucidaSansUnicode Bold';font-family:LucidaSansUnicode;font-weight:bold;font-style:normal;font-stretch:normal;font-variant:normal;fill:#800000">coordenador-de-projetos</tspan></text>
</g><g
           id="g529"
           transform="translate(-2.9003362,-2.5377942)"><text
             transform="matrix(1,0,0,-1,211.65,59)"
             style="font-variant:normal;font-weight:normal;font-size:12px;font-family:LucidaSansUnicode;-inkscape-font-specification:LucidaSansUnicode;writing-mode:lr-tb;fill:#000000;fill-opacity:1;fill-rule:nonzero;stroke:none"
             id="text533"><tspan
               x="0 6.6240001 14.064 20.688 24.156 27.624001 33.731998 38.220001 44.844002 51.779999 59.327999 66.012001 72.120003 78.804001 86.244003 92.447998 99.816002 103.284 109.488 116.172 123.72 131.088"
               y="0"
               sodipodi:role="line"
               id="tspan531">analista-desenvolvedor</tspan></text>
</g><g
           id="g535"><text
             transform="matrix(1,0,0,-1,146.45,235.6)"
             style="font-variant:normal;font-weight:normal;font-size:13px;font-family:LucidaSansUnicode;-inkscape-font-specification:LucidaSansUnicode;writing-mode:lr-tb;fill:#000000;fill-opacity:1;fill-rule:nonzero;stroke:none"
             id="text539"><tspan
               x="0 8.099 15.34 20.657 27.898001 35.958 40.82 48.061001 55.575001 63.751999 70.992996 78.507004 83.369003"
               y="0"
               sodipodi:role="line"
               id="tspan537">gerente-de-ti</tspan></text>
</g><g
           id="g541"
           transform="translate(9.9645698,4.4749092)"><text
             transform="matrix(1,0,0,-1,286.35,291.55)"
             style="font-variant:normal;font-weight:normal;font-size:12px;font-family:LucidaSansUnicode;-inkscape-font-specification:LucidaSansUnicode;writing-mode:lr-tb;fill:#000000;fill-opacity:1;fill-rule:nonzero;stroke:none"
             id="text545"><tspan
               x="0 3.4679999 6.9359999 14.484 21.167999 26.076 33.012001 40.560001 47.243999 54.18 61.728001 66.636002 74.003998 77.652 84.335999 88.823997 96.192001"
               y="0"
               sodipodi:role="line"
               id="tspan543">lider-de-projetos</tspan></text>
</g><g
           id="g547"><text
             transform="matrix(1,0,0,-1,391.3,235.5)"
             style="font-variant:normal;font-weight:normal;font-size:12px;font-family:LucidaSansUnicode;-inkscape-font-specification:LucidaSansUnicode;writing-mode:lr-tb;fill:#000000;fill-opacity:1;fill-rule:nonzero;stroke:none"
             id="text551"><tspan
               x="0 6.6240001 14.064 20.688 24.156 27.624001 33.731998 38.220001 44.844002 51.779999 59.327999 66.012001 72.947998 77.856003 84.540001 92.087997 99.528 102.996 109.104 112.572 117.06 124.428"
               y="0"
               sodipodi:role="line"
               id="tspan549">analista-de-requisitos</tspan></text>
</g><g
           id="g553"
           transform="translate(-0.36254203,-1.0876261)"><text
             transform="matrix(1,0,0,-1,123.4,435.05)"
             style="font-variant:normal;font-weight:normal;font-size:12px;font-family:LucidaSansUnicode;-inkscape-font-specification:LucidaSansUnicode;writing-mode:lr-tb;fill:#000000;fill-opacity:1;fill-rule:nonzero;stroke:none"
             id="text557"><tspan
               x="0 7.5479999 18.743999 26.112 33.048 40.523998 47.208 52.116001 58.799999 66.239998 70.727997 77.412003 84.348 91.896004 98.580002 105.516 113.064 117.972 125.34 128.98801 135.672 140.16 147.528"
               y="0"
               sodipodi:role="line"
               id="tspan555">pmo-gerente-de-projetos</tspan></text>
</g><g
           id="g559"><text
             transform="scale(1,-1)"
             style="font-variant:normal;font-weight:normal;font-size:12px;font-family:LucidaSansUnicode;-inkscape-font-specification:LucidaSansUnicode;writing-mode:lr-tb;fill:#000000;fill-opacity:1;fill-rule:nonzero;stroke:none"
             id="text563"
             x="357.36609"
             y="-162.84915"><tspan
               x="357.36609 363.99011 371.43011 378.05411 381.52209 384.99011 391.09811 395.58609 402.21011 409.14609 416.69409 423.37811 429.48611 436.1701 443.61011 449.81409 457.1821 460.65009 466.8541 473.53809 481.08609 488.4541 493.36209 500.2981 507.8461 514.53009 521.46613 527.5741 531.04211 537.15009 541.63812 548.32208 559.51807 566.14209"
               y="-162.84915"
               sodipodi:role="line"
               id="tspan561">analista-desenvolvedor-de-sistemas</tspan></text>
</g><g
           id="g565"><text
             transform="matrix(1,0,0,-1,106.8,158.35)"
             style="font-variant:normal;font-weight:normal;font-size:12px;font-family:LucidaSansUnicode;-inkscape-font-specification:LucidaSansUnicode;writing-mode:lr-tb;fill:#000000;fill-opacity:1;fill-rule:nonzero;stroke:none"
             id="text569"><tspan
               x="0 6.1440001 13.512 20.879999 25.788 33.335999 40.02 47.459999 54.084 61.632 69 73.907997 80.844002 88.391998 95.075996 102.012 106.5"
               y="0"
               sodipodi:role="line"
               id="tspan567">coordenador-de-ti</tspan></text>
</g><g
           id="g571"><text
             transform="matrix(1,0,0,-1,151.8,98.85)"
             style="font-variant:normal;font-weight:normal;font-size:12px;font-family:LucidaSansUnicode;-inkscape-font-specification:LucidaSansUnicode;writing-mode:lr-tb;fill:#000000;fill-opacity:1;fill-rule:nonzero;stroke:none"
             id="text575"><tspan
               x="0 6.6240001 14.064 20.688 24.156 27.624001 33.731998 38.220001"
               y="0"
               sodipodi:role="line"
               id="tspan573">analista</tspan></text>
</g><g
           id="g577"><text
             transform="matrix(1,0,0,-1,264.9,465.85)"
             style="font-variant:normal;font-weight:normal;font-size:12px;font-family:LucidaSansUnicode;-inkscape-font-specification:LucidaSansUnicode;writing-mode:lr-tb;fill:#000000;fill-opacity:1;fill-rule:nonzero;stroke:none"
             id="text581"><tspan
               x="0 6.6240001 14.064 20.688 24.156 27.624001 33.731998 38.220001 44.844002 51.779999 59.327999 66.012001 72.947998 80.496002 85.403999 92.772003 96.419998 103.104 107.592 114.96"
               y="0"
               sodipodi:role="line"
               id="tspan579">analista-de-projetos</tspan></text>
</g></g></g></g></svg>