<?xml version="1.0" encoding="UTF-8" standalone="no"?>
<!-- Created with Inkscape (http://www.inkscape.org/) -->

<svg
   xmlns:dc="http://purl.org/dc/elements/1.1/"
   xmlns:cc="http://creativecommons.org/ns#"
   xmlns:rdf="http://www.w3.org/1999/02/22-rdf-syntax-ns#"
   xmlns:svg="http://www.w3.org/2000/svg"
   xmlns="http://www.w3.org/2000/svg"
   xmlns:sodipodi="http://sodipodi.sourceforge.net/DTD/sodipodi-0.dtd"
   xmlns:inkscape="http://www.inkscape.org/namespaces/inkscape"
   width="187.325mm"
   height="113.24167mm"
   viewBox="0 0 187.325 113.24167"
   version="1.1"
   id="svg1121"
   inkscape:version="0.92.2 5c3e80d, 2017-08-06"
   sodipodi:docname="ex-multilayer-01.svg">
  <defs
     id="defs1115">
    <marker
       inkscape:isstock="true"
       style="overflow:visible"
       id="marker49223"
       refX="0"
       refY="0"
       orient="auto"
       inkscape:stockid="Arrow2Mend">
      <path
         inkscape:connector-curvature="0"
         transform="scale(-0.6)"
         d="M 8.7185878,4.0337352 -2.2072895,0.01601326 8.7185884,-4.0017078 c -1.7454984,2.3720609 -1.7354408,5.6174519 -6e-7,8.035443 z"
         style="fill:#000000;fill-opacity:1;fill-rule:evenodd;stroke:#000000;stroke-width:0.625;stroke-linejoin:round;stroke-opacity:1"
         id="path49221" />
    </marker>
    <marker
       inkscape:isstock="true"
       style="overflow:visible"
       id="marker22105"
       refX="0"
       refY="0"
       orient="auto"
       inkscape:stockid="Arrow2Mend">
      <path
         inkscape:connector-curvature="0"
         transform="scale(-0.6)"
         d="M 8.7185878,4.0337352 -2.2072895,0.01601326 8.7185884,-4.0017078 c -1.7454984,2.3720609 -1.7354408,5.6174519 -6e-7,8.035443 z"
         style="fill:#000000;fill-opacity:1;fill-rule:evenodd;stroke:#000000;stroke-width:0.625;stroke-linejoin:round;stroke-opacity:1"
         id="path22103" />
    </marker>
    <marker
       inkscape:isstock="true"
       style="overflow:visible"
       id="marker8955"
       refX="0"
       refY="0"
       orient="auto"
       inkscape:stockid="Arrow2Mend">
      <path
         transform="scale(-0.6)"
         d="M 8.7185878,4.0337352 -2.2072895,0.01601326 8.7185884,-4.0017078 c -1.7454984,2.3720609 -1.7354408,5.6174519 -6e-7,8.035443 z"
         style="fill:#000000;fill-opacity:1;fill-rule:evenodd;stroke:#000000;stroke-width:0.625;stroke-linejoin:round;stroke-opacity:1"
         id="path8953"
         inkscape:connector-curvature="0" />
    </marker>
    <marker
       inkscape:isstock="true"
       style="overflow:visible"
       id="marker9421"
       refX="0"
       refY="0"
       orient="auto"
       inkscape:stockid="Arrow2Mend">
      <path
         transform="scale(-0.6)"
         d="M 8.7185878,4.0337352 -2.2072895,0.01601326 8.7185884,-4.0017078 c -1.7454984,2.3720609 -1.7354408,5.6174519 -6e-7,8.035443 z"
         style="fill:#000000;fill-opacity:1;fill-rule:evenodd;stroke:#000000;stroke-width:0.625;stroke-linejoin:round;stroke-opacity:1"
         id="path9419"
         inkscape:connector-curvature="0" />
    </marker>
    <marker
       inkscape:isstock="true"
       style="overflow:visible"
       id="marker49223-3"
       refX="0"
       refY="0"
       orient="auto"
       inkscape:stockid="Arrow2Mend">
      <path
         inkscape:connector-curvature="0"
         transform="scale(-0.6)"
         d="M 8.7185878,4.0337352 -2.2072895,0.01601326 8.7185884,-4.0017078 c -1.7454984,2.3720609 -1.7354408,5.6174519 -6e-7,8.035443 z"
         style="fill:#000000;fill-opacity:1;fill-rule:evenodd;stroke:#000000;stroke-width:0.625;stroke-linejoin:round;stroke-opacity:1"
         id="path49221-6" />
    </marker>
    <marker
       inkscape:stockid="Arrow2Mend"
       orient="auto"
       refY="0"
       refX="0"
       id="marker28452"
       style="overflow:visible"
       inkscape:isstock="true"
       inkscape:collect="always">
      <path
         inkscape:connector-curvature="0"
         id="path28450"
         style="fill:#000000;fill-opacity:1;fill-rule:evenodd;stroke:#000000;stroke-width:0.625;stroke-linejoin:round;stroke-opacity:1"
         d="M 8.7185878,4.0337352 -2.2072895,0.01601326 8.7185884,-4.0017078 c -1.7454984,2.3720609 -1.7354408,5.6174519 -6e-7,8.035443 z"
         transform="scale(-0.6)" />
    </marker>
  </defs>
  <sodipodi:namedview
     id="base"
     pagecolor="#ffffff"
     bordercolor="#666666"
     borderopacity="1.0"
     inkscape:pageopacity="0.0"
     inkscape:pageshadow="2"
     inkscape:zoom="0.49497475"
     inkscape:cx="204.10196"
     inkscape:cy="206.91735"
     inkscape:document-units="mm"
     inkscape:current-layer="layer1"
     showgrid="false"
     fit-margin-top="0"
     fit-margin-left="0"
     fit-margin-right="0"
     fit-margin-bottom="0"
     inkscape:window-width="1311"
     inkscape:window-height="704"
     inkscape:window-x="55"
     inkscape:window-y="30"
     inkscape:window-maximized="1"
     inkscape:snap-page="false"
     inkscape:snap-to-guides="false" />
  <metadata
     id="metadata1118">
    <rdf:RDF>
      <cc:Work
         rdf:about="">
        <dc:format>image/svg+xml</dc:format>
        <dc:type
           rdf:resource="http://purl.org/dc/dcmitype/StillImage" />
        <dc:title />
      </cc:Work>
    </rdf:RDF>
  </metadata>
  <g
     inkscape:label="Layer 1"
     inkscape:groupmode="layer"
     id="layer1"
     transform="translate(-0.07559919,0.76964253)">
    <g
       transform="translate(207.45786,-38.971479)"
       style="display:inline"
       id="g24889">
      <g
         transform="translate(-203.29061,18.535246)"
         id="g14681">
        <circle
           id="circle14671"
           cx="145.8289"
           cy="76.196762"
           r="16.630953"
           style="opacity:1;fill:none;fill-opacity:1;stroke:#000000;stroke-width:2.11666656;stroke-miterlimit:4;stroke-dasharray:none;stroke-opacity:1" />
        <g
           id="g14679"
           transform="translate(54.344243,58.216293)">
          <path
             d="m 95.269531,12.871094 c -1.196683,0 -2.233416,0.426209 -2.976562,1.255859 -0.740835,0.827528 -1.09961,1.941613 -1.09961,3.25 0,1.305195 0.360069,2.416077 1.09961,3.246094 a 0.50005,0.50005 0 0 0 0.002,0.002 c 0.743243,0.825825 1.778068,1.251953 2.974609,1.251953 0.06891,0 0.13399,-0.0021 0.197266,-0.0059 0.0071,-3.93e-4 0.02162,-0.0015 0.0293,-0.002 l 0.982422,1.060547 a 0.50005,0.50005 0 0 0 0.367187,0.160156 h 1.261719 a 0.50005,0.50005 0 0 0 0.36914,-0.837891 L 97.496094,21.179688 C 97.9927,20.84904 98.431218,20.45023 98.728516,19.921875 v -0.002 c 0.410606,-0.724185 0.607422,-1.580492 0.607422,-2.542969 -10e-7,-1.307721 -0.35954,-2.420649 -1.09961,-3.248047 -0.739667,-0.830158 -1.773204,-1.257812 -2.966797,-1.257812 z m -8.191406,0.140625 a 0.50005,0.50005 0 0 0 -0.466797,0.322265 l -2.945312,7.714844 a 0.50005,0.50005 0 0 0 0.466796,0.677734 h 1.101563 a 0.50005,0.50005 0 0 0 0.470703,-0.332031 l 0.585938,-1.648437 h 2.769531 l 0.585937,1.648437 a 0.50005,0.50005 0 0 0 0.470704,0.332031 h 1.085937 a 0.50005,0.50005 0 0 0 0.466797,-0.677734 l -2.941406,-7.714844 a 0.50005,0.50005 0 0 0 -0.466797,-0.322265 z m 8.191406,1.707031 c 0.633608,0 1.048893,0.200887 1.404297,0.65625 a 0.50005,0.50005 0 0 0 0.002,0 c 0.35777,0.454838 0.558594,1.102754 0.558594,2.001953 0,0.895486 -0.200396,1.540712 -0.558594,1.996094 a 0.50005,0.50005 0 0 0 -0.002,0 c -0.355404,0.455362 -0.77069,0.65625 -1.404297,0.65625 -0.633607,0 -1.053398,-0.200747 -1.416015,-0.658203 -0.357565,-0.455311 -0.558594,-1.099497 -0.558594,-1.994141 0,-0.898354 0.201454,-1.545227 0.558594,-2 0.362617,-0.457457 0.782408,-0.658203 1.416015,-0.658203 z m -7.601562,1.261719 0.703125,1.898437 H 86.96875 Z"
             id="path14673"
             style="font-style:normal;font-weight:normal;font-size:medium;line-height:1.25;font-family:sans-serif;letter-spacing:0px;word-spacing:0px;display:inline;fill:#ffffff;fill-opacity:1;stroke:none;stroke-width:0.26458332;stroke-opacity:1"
             inkscape:original="M 95.269531 13.371094 C 94.184326 13.371094 93.317139 13.734023 92.666016 14.460938 C 92.018338 15.184408 91.693359 16.15739 91.693359 17.376953 C 91.693359 18.593072 92.018338 19.5641 92.666016 20.291016 C 93.317139 21.014486 94.184326 21.376953 95.269531 21.376953 C 95.324653 21.376953 95.380886 21.37456 95.439453 21.371094 C 95.501464 21.367654 95.589436 21.362362 95.703125 21.355469 L 96.845703 22.589844 L 98.107422 22.589844 L 96.732422 21.085938 C 97.414551 20.782769 97.934679 20.313124 98.292969 19.675781 C 98.654703 19.038439 98.835938 18.272678 98.835938 17.376953 C 98.835938 16.15739 98.510959 15.184408 97.863281 14.460938 C 97.215603 13.734023 96.351291 13.371094 95.269531 13.371094 z M 87.078125 13.511719 L 84.132812 21.226562 L 85.234375 21.226562 L 85.9375 19.246094 L 89.414062 19.246094 L 90.117188 21.226562 L 91.203125 21.226562 L 88.261719 13.511719 L 87.078125 13.511719 z M 95.269531 14.21875 C 96.027452 14.21875 96.627387 14.50141 97.068359 15.066406 C 97.512777 15.631402 97.734375 16.401991 97.734375 17.376953 C 97.734375 18.34847 97.512777 19.116645 97.068359 19.681641 C 96.627387 20.246636 96.027452 20.529297 95.269531 20.529297 C 94.51161 20.529297 93.9088 20.246636 93.460938 19.681641 C 93.016521 19.116645 92.794922 18.34847 92.794922 17.376953 C 92.794922 16.401991 93.016521 15.631402 93.460938 15.066406 C 93.9088 14.50141 94.51161 14.21875 95.269531 14.21875 z M 87.667969 14.539062 L 89.089844 18.378906 L 86.251953 18.378906 L 87.667969 14.539062 z "
             inkscape:radius="0.5"
             sodipodi:type="inkscape:offset" />
          <text
             id="text14677"
             y="21.226135"
             x="84.050858"
             style="font-style:normal;font-weight:normal;font-size:10.58333302px;line-height:1.25;font-family:sans-serif;letter-spacing:0px;word-spacing:0px;fill:#000000;fill-opacity:1;stroke:none;stroke-width:0.26458332"
             xml:space="preserve"><tspan
               style="stroke-width:0.26458332"
               y="21.226135"
               x="84.050858"
               id="tspan14675"
               sodipodi:role="line">AQ</tspan></text>
        </g>
      </g>
      <g
         id="g24861">
        <g
           id="g14667"
           transform="translate(-136.41776,107.80394)">
          <path
             d="m 20.236328,13.478516 c -1.268923,0 -2.352349,0.409611 -3.123047,1.230468 -0.771225,0.818686 -1.144531,1.944845 -1.144531,3.275391 0,1.327351 0.372697,2.450277 1.142578,3.271484 a 0.50005,0.50005 0 0 0 0.002,0.002 c 0.771212,0.81867 1.853773,1.22461 3.123047,1.22461 0.499185,0 0.981165,-0.06802 1.4375,-0.207031 0.45949,-0.139005 0.894215,-0.348215 1.298828,-0.623047 a 0.50005,0.50005 0 0 0 0.21875,-0.414063 v -1.089843 a 0.50005,0.50005 0 0 0 -0.839844,-0.365235 c -0.312387,0.290949 -0.63664,0.499784 -0.974609,0.636719 a 0.50005,0.50005 0 0 0 -0.002,0 c -0.33477,0.13682 -0.68805,0.205078 -1.076172,0.205078 -0.780197,0 -1.281848,-0.214266 -1.648437,-0.634766 -0.367493,-0.424237 -0.580079,-1.066499 -0.580079,-2.005859 0,-0.943065 0.214438,-1.588402 0.580079,-2.007813 0.367188,-0.423886 0.869153,-0.640625 1.648437,-0.640624 0.386667,-1e-6 0.740097,0.06968 1.076172,0.207031 a 0.50005,0.50005 0 0 0 0.002,0 c 0.339267,0.137462 0.662949,0.344493 0.974609,0.634765 A 0.50005,0.50005 0 0 0 23.191406,15.8125 v -1.099609 a 0.50005,0.50005 0 0 0 -0.21875,-0.41211 c -0.397757,-0.271546 -0.828605,-0.479698 -1.287109,-0.615234 -0.457506,-0.139579 -0.943153,-0.207031 -1.449219,-0.207031 z m 4.078125,0.138672 a 0.50005,0.50005 0 0 0 -0.5,0.5 v 7.716796 a 0.50005,0.50005 0 0 0 0.5,0.5 h 1.042969 a 0.50005,0.50005 0 0 0 0.5,-0.5 v -2.601562 h 0.8125 c 0.939768,0 1.726419,-0.212275 2.289062,-0.708984 0.565462,-0.496066 0.835938,-1.2438 0.835938,-2.101563 0,-0.850716 -0.27147,-1.593176 -0.833984,-2.087891 -0.562083,-0.500604 -1.350318,-0.716797 -2.291016,-0.716796 z m 1.542969,1.859374 h 0.8125 c 0.399667,1e-6 0.628835,0.09389 0.783203,0.240235 0.155305,0.147237 0.242188,0.339588 0.242187,0.705078 0,0.369646 -0.08898,0.567641 -0.242187,0.712891 C 27.298757,17.281115 27.069588,17.375 26.669922,17.375 h -0.8125 z"
             id="path14661"
             style="font-style:normal;font-weight:normal;font-size:medium;line-height:1.25;font-family:sans-serif;letter-spacing:0px;word-spacing:0px;fill:#ffffff;fill-opacity:1;stroke:none;stroke-width:0.26458332;stroke-opacity:1"
             inkscape:original="M 20.236328 13.978516 C 19.068441 13.978516 18.148357 14.336154 17.476562 15.052734 C 16.804769 15.765869 16.46875 16.74414 16.46875 17.984375 C 16.46875 19.221164 16.804769 20.197482 17.476562 20.914062 C 18.148357 21.627197 19.068441 21.982422 20.236328 21.982422 C 20.691081 21.982422 21.122776 21.920899 21.529297 21.796875 C 21.939263 21.672852 22.326226 21.486328 22.691406 21.238281 L 22.691406 20.148438 C 22.340007 20.475721 21.964084 20.720893 21.564453 20.882812 C 21.168267 21.044732 20.746691 21.125 20.298828 21.125 C 19.416884 21.125 18.741971 20.855794 18.273438 20.318359 C 17.804905 19.777479 17.570312 19.000678 17.570312 17.984375 C 17.570312 16.964627 17.804905 16.185873 18.273438 15.648438 C 18.741971 15.107558 19.416884 14.835938 20.298828 14.835938 C 20.746691 14.835937 21.168267 14.918159 21.564453 15.080078 C 21.964084 15.241998 22.340007 15.485216 22.691406 15.8125 L 22.691406 14.712891 C 22.333116 14.468289 21.949029 14.284641 21.539062 14.164062 C 21.132541 14.040038 20.697971 13.978516 20.236328 13.978516 z M 24.314453 14.117188 L 24.314453 21.833984 L 25.357422 21.833984 L 25.357422 18.732422 L 26.669922 18.732422 C 27.534641 18.732422 28.187934 18.537734 28.628906 18.148438 C 29.073324 17.759142 29.294922 17.183241 29.294922 16.421875 C 29.294922 15.667399 29.073324 15.096327 28.628906 14.707031 C 28.187934 14.314291 27.534641 14.117188 26.669922 14.117188 L 24.314453 14.117188 z M 25.357422 14.976562 L 26.669922 14.976562 C 27.155681 14.976563 27.531602 15.102024 27.796875 15.353516 C 28.062147 15.605007 28.195312 15.960232 28.195312 16.421875 C 28.195312 16.886962 28.062147 17.246555 27.796875 17.498047 C 27.531602 17.749539 27.155681 17.875 26.669922 17.875 L 25.357422 17.875 L 25.357422 14.976562 z "
             inkscape:radius="0.5"
             sodipodi:type="inkscape:offset" />
          <text
             id="text14665"
             y="21.833334"
             x="15.875"
             style="font-style:normal;font-weight:normal;font-size:10.58333302px;line-height:1.25;font-family:sans-serif;letter-spacing:0px;word-spacing:0px;fill:#000000;fill-opacity:1;stroke:none;stroke-width:0.26458332"
             xml:space="preserve"><tspan
               style="stroke-width:0.26458332"
               y="21.833334"
               x="15.875"
               id="tspan14663"
               sodipodi:role="line">CP</tspan></text>
        </g>
        <circle
           id="circle14683"
           cx="-113.53592"
           cy="125.78441"
           r="16.630953"
           style="opacity:1;fill:none;fill-opacity:1;stroke:#000000;stroke-width:2.11666656;stroke-miterlimit:4;stroke-dasharray:none;stroke-opacity:1" />
      </g>
      <g
         id="g24854">
        <circle
           id="circle14659"
           cx="-169.61012"
           cy="94.73201"
           r="16.630953"
           style="opacity:1;fill:none;fill-opacity:1;stroke:#000000;stroke-width:2.11666656;stroke-miterlimit:4;stroke-dasharray:none;stroke-opacity:1" />
        <g
           id="g14691"
           transform="translate(-295.39556,76.751541)">
          <path
             d="m 129.70312,13.478516 c -0.92188,0 -1.71364,0.2183 -2.30664,0.701172 a 0.50005,0.50005 0 0 0 0,0.002 c -0.58818,0.482396 -0.90234,1.198696 -0.90234,1.998047 0,0.688401 0.22439,1.311393 0.67969,1.74414 0.45458,0.432068 1.10418,0.689931 1.93555,0.855469 a 0.50005,0.50005 0 0 0 0.002,0 l 0.63086,0.123047 c 0.48121,0.09687 0.78155,0.245643 0.90234,0.357422 a 0.50005,0.50005 0 0 0 0.004,0.002 c 0.12565,0.11457 0.1875,0.243747 0.1875,0.519531 0,0.309305 -0.0748,0.451686 -0.2793,0.599609 -0.20516,0.148418 -0.55444,0.253907 -1.08594,0.253907 -0.34257,0 -0.69313,-0.05038 -1.05664,-0.158204 -0.36643,-0.108688 -0.74919,-0.272367 -1.14453,-0.49414 a 0.50005,0.50005 0 0 0 -0.74414,0.435547 v 0.828125 l -2.78516,-7.306641 a 0.50005,0.50005 0 0 0 -0.46679,-0.322265 h -1.1836 a 0.50005,0.50005 0 0 0 -0.46679,0.322265 l -2.94532,7.716797 a 0.50005,0.50005 0 0 0 0.4668,0.677734 h 1.10156 a 0.50005,0.50005 0 0 0 0.47071,-0.332031 l 0.58593,-1.648437 h 2.76954 l 0.58593,1.648437 a 0.50005,0.50005 0 0 0 0.47071,0.332031 h 1.08593 a 0.50005,0.50005 0 0 0 0.4961,-0.453125 0.50005,0.50005 0 0 0 0.14258,0.08008 c 0.46222,0.169722 0.91162,0.300338 1.3496,0.388671 a 0.50005,0.50005 0 0 0 0.002,0 c 0.44193,0.08839 0.8636,0.132813 1.26562,0.132813 1.03429,0 1.88251,-0.200155 2.50586,-0.681641 0.62655,-0.480643 0.94922,-1.236237 0.94922,-2.095703 0,-0.724186 -0.23212,-1.378244 -0.70117,-1.849609 l -0.002,-0.002 c -0.46887,-0.476581 -1.14308,-0.764131 -1.98243,-0.923828 h 0.006 l -0.6289,-0.128907 a 0.50005,0.50005 0 0 0 -0.008,-0.002 c -0.5329,-0.09952 -0.86253,-0.248846 -0.93555,-0.308594 -0.0815,-0.07135 -0.13086,-0.155032 -0.13086,-0.392578 0,-0.279147 0.065,-0.398317 0.25195,-0.533203 0.19199,-0.136034 0.52408,-0.238281 1.02735,-0.238281 0.28078,0 0.57502,0.03807 0.88867,0.121094 0.31501,0.08339 0.66201,0.214118 1.03515,0.392578 a 0.50005,0.50005 0 0 0 0.71485,-0.451172 v -1.017578 a 0.50005,0.50005 0 0 0 -0.3418,-0.47461 c -0.4141,-0.138029 -0.82227,-0.242365 -1.22461,-0.3125 -0.40266,-0.07019 -0.8,-0.105468 -1.19141,-0.105468 z m -7.02343,3.109375 0.70312,1.898437 h -1.40234 z"
             id="path14685"
             style="font-style:normal;font-weight:normal;font-size:medium;line-height:1.25;font-family:sans-serif;letter-spacing:0px;word-spacing:0px;display:inline;fill:#ffffff;fill-opacity:1;stroke:none;stroke-width:0.26458332;stroke-opacity:1"
             inkscape:original="M 129.70312 13.978516 C 128.85907 13.978516 128.1952 14.175618 127.71289 14.568359 C 127.23402 14.9611 126.99414 15.497559 126.99414 16.179688 C 126.99414 16.768799 127.16962 17.229818 127.51758 17.560547 C 127.86554 17.891276 128.42844 18.134033 129.20703 18.289062 L 129.8418 18.412109 C 130.37234 18.518907 130.75356 18.678982 130.98438 18.892578 C 131.21864 19.106174 131.33594 19.402289 131.33594 19.78125 C 131.33594 20.215332 131.17345 20.55089 130.84961 20.785156 C 130.52578 21.019423 130.06671 21.134766 129.4707 21.134766 C 129.07796 21.134766 128.678 21.075656 128.27148 20.955078 C 127.86496 20.834499 127.44914 20.65568 127.02539 20.417969 L 127.02539 21.492188 C 127.46636 21.654107 127.89277 21.776693 128.30273 21.859375 C 128.71614 21.942058 129.10552 21.982422 129.4707 21.982422 C 130.43878 21.982422 131.17234 21.790148 131.67188 21.404297 C 132.17486 21.018446 132.42578 20.452664 132.42578 19.705078 C 132.42578 19.078071 132.23925 18.577148 131.86719 18.205078 C 131.49856 17.829562 130.92508 17.568061 130.14648 17.419922 L 129.51758 17.291016 C 128.94569 17.184218 128.55632 17.045302 128.34961 16.873047 C 128.14635 16.697347 128.04297 16.438721 128.04297 16.097656 C 128.04297 15.691135 128.19729 15.376736 128.50391 15.15625 C 128.81397 14.935764 129.25383 14.826172 129.82227 14.826172 C 130.14955 14.826172 130.48844 14.871826 130.83984 14.964844 C 131.19124 15.057862 131.56475 15.199192 131.96094 15.388672 L 131.96094 14.371094 C 131.5682 14.240184 131.18411 14.141632 130.80859 14.076172 C 130.43308 14.010712 130.06486 13.978516 129.70312 13.978516 z M 122.08984 14.117188 L 119.14453 21.833984 L 120.24609 21.833984 L 120.94922 19.853516 L 124.42578 19.853516 L 125.12891 21.833984 L 126.21484 21.833984 L 123.27344 14.117188 L 122.08984 14.117188 z M 122.67969 15.146484 L 124.10156 18.986328 L 121.26367 18.986328 L 122.67969 15.146484 z "
             inkscape:radius="0.5"
             sodipodi:type="inkscape:offset" />
          <text
             id="text14689"
             y="21.833334"
             x="119.0625"
             style="font-style:normal;font-weight:normal;font-size:10.58333302px;line-height:1.25;font-family:sans-serif;letter-spacing:0px;word-spacing:0px;fill:#000000;fill-opacity:1;stroke:none;stroke-width:0.26458332"
             xml:space="preserve"><tspan
               style="stroke-width:0.26458332"
               y="21.833334"
               x="119.0625"
               id="tspan14687"
               sodipodi:role="line">AS</tspan></text>
        </g>
      </g>
      <g
         transform="translate(-209.88774,5.739078)"
         id="g14705">
        <g
           id="g14701"
           transform="translate(39.168228,39.960045)">
          <path
             d="m 54.216797,13.478516 c -1.303188,0 -2.406849,0.398642 -3.191406,1.210937 -0.782837,0.810653 -1.158204,1.944427 -1.158203,3.294922 -2e-6,1.347296 0.374803,2.477835 1.15625,3.291016 a 0.50005,0.50005 0 0 0 0.002,0.002 c 0.784947,0.808735 1.888885,1.205078 3.191406,1.205078 0.594817,0 1.163509,-0.07871 1.699219,-0.238281 a 0.50005,0.50005 0 0 0 0.0039,0 c 0.53449,-0.163001 1.027518,-0.403537 1.474609,-0.720703 a 0.50005,0.50005 0 0 0 0.210938,-0.408204 v -3.3125 a 0.50005,0.50005 0 0 0 -0.5,-0.5 h -2.738281 a 0.50005,0.50005 0 0 0 -0.5,0.5 v 0.857422 a 0.50005,0.50005 0 0 0 0.5,0.5 h 1.205078 v 1.236328 c -0.125352,0.0535 -0.239734,0.114748 -0.388672,0.148438 -0.244622,0.05211 -0.538714,0.08008 -0.878906,0.08008 -0.849937,0 -1.390565,-0.220735 -1.75586,-0.625 -0.363048,-0.405447 -0.580078,-1.050513 -0.580078,-2.015625 0,-0.968805 0.217946,-1.619013 0.580078,-2.023437 0.365295,-0.404265 0.905923,-0.625 1.75586,-0.625 0.421313,-1e-6 0.814415,0.07123 1.191406,0.214843 0.376937,0.143596 0.736692,0.359719 1.083984,0.654297 a 0.50005,0.50005 0 0 0 0.824219,-0.380859 V 14.712891 A 0.50005,0.50005 0 0 0 57.171875,14.289062 C 56.747559,14.021475 56.281047,13.818131 55.78125,13.681641 h -0.002 c -0.496885,-0.13636 -1.019412,-0.203125 -1.5625,-0.203125 z m 4.800781,0.138672 a 0.50005,0.50005 0 0 0 -0.5,0.5 v 7.716796 a 0.50005,0.50005 0 0 0 0.5,0.5 H 60.0625 a 0.50005,0.50005 0 0 0 0.5,-0.5 v -2.601562 h 0.8125 c 0.939768,0 1.725015,-0.21276 2.287109,-0.708984 C 64.22703,18.02785 64.5,17.280492 64.5,16.421875 64.5,15.570296 64.226046,14.828222 63.664062,14.333984 63.102527,13.833868 62.315699,13.617187 61.375,13.617188 Z m 1.544922,1.859374 h 0.8125 c 0.399667,1e-6 0.625992,0.09304 0.78125,0.240235 0.155305,0.147237 0.242188,0.339589 0.242188,0.705078 0,0.369645 -0.08898,0.567641 -0.242188,0.712891 C 62.000992,17.281958 61.774666,17.375 61.375,17.375 h -0.8125 z"
             id="path14695"
             style="font-style:normal;font-weight:normal;font-size:medium;line-height:1.25;font-family:sans-serif;letter-spacing:0px;word-spacing:0px;display:inline;fill:#ffffff;fill-opacity:1;stroke:none;stroke-width:0.26458332;stroke-opacity:1"
             inkscape:original="M 54.216797 13.978516 C 53.011014 13.978516 52.066894 14.330865 51.384766 15.037109 C 50.706082 15.739909 50.367188 16.72347 50.367188 17.984375 C 50.367187 19.241835 50.706082 20.223443 51.384766 20.929688 C 52.066894 21.632488 53.011014 21.982422 54.216797 21.982422 C 54.768012 21.982422 55.287679 21.910319 55.773438 21.765625 C 56.259196 21.617486 56.702392 21.401177 57.105469 21.115234 L 57.105469 17.802734 L 54.367188 17.802734 L 54.367188 18.660156 L 56.072266 18.660156 L 56.072266 20.732422 C 55.841444 20.866777 55.582357 20.967743 55.292969 21.033203 C 55.003581 21.095216 54.673313 21.125 54.304688 21.125 C 53.360732 21.125 52.651205 20.861084 52.175781 20.333984 C 51.703803 19.806885 51.46875 19.024794 51.46875 17.984375 C 51.46875 16.940511 51.703803 16.154052 52.175781 15.626953 C 52.651205 15.099853 53.360732 14.835938 54.304688 14.835938 C 54.783555 14.835938 55.239746 14.91862 55.673828 15.083984 C 56.10791 15.249349 56.518446 15.496935 56.904297 15.824219 L 56.904297 14.712891 C 56.521891 14.471734 56.10319 14.288086 55.648438 14.164062 C 55.19713 14.040039 54.719781 13.978516 54.216797 13.978516 z M 59.017578 14.117188 L 59.017578 21.833984 L 60.0625 21.833984 L 60.0625 18.732422 L 61.375 18.732422 C 62.239719 18.732422 62.891059 18.537734 63.332031 18.148438 C 63.776449 17.759142 64 17.183241 64 16.421875 C 64 15.667399 63.776449 15.096327 63.332031 14.707031 C 62.891059 14.314291 62.239719 14.117188 61.375 14.117188 L 59.017578 14.117188 z M 60.0625 14.976562 L 61.375 14.976562 C 61.860759 14.976563 62.234727 15.102024 62.5 15.353516 C 62.765272 15.605007 62.898438 15.960232 62.898438 16.421875 C 62.898438 16.886962 62.765272 17.246555 62.5 17.498047 C 62.234727 17.749539 61.860759 17.875 61.375 17.875 L 60.0625 17.875 L 60.0625 14.976562 z "
             inkscape:radius="0.5"
             sodipodi:type="inkscape:offset" />
          <text
             id="text14699"
             y="21.833334"
             x="49.773014"
             style="font-style:normal;font-weight:normal;font-size:10.58333302px;line-height:1.25;font-family:sans-serif;letter-spacing:0px;word-spacing:0px;fill:#000000;fill-opacity:1;stroke:none;stroke-width:0.26458332"
             xml:space="preserve"><tspan
               style="stroke-width:0.26458332"
               y="21.833334"
               x="49.773014"
               id="tspan14697"
               sodipodi:role="line">GP</tspan></text>
        </g>
        <circle
           style="opacity:1;fill:none;fill-opacity:1;stroke:#000000;stroke-width:2.11666656;stroke-miterlimit:4;stroke-dasharray:none;stroke-opacity:1"
           r="16.630953"
           cy="57.940514"
           cx="96.351822"
           id="circle14703" />
      </g>
      <g
         id="g14709"
         transform="translate(-218.95692,31.414511)">
        <rect
           y="7.8471107"
           x="12.634892"
           height="111.125"
           width="185.20833"
           id="rect14707"
           style="opacity:1;fill:none;fill-opacity:1;stroke:#000000;stroke-width:2.11666656;stroke-miterlimit:4;stroke-dasharray:none;stroke-opacity:1" />
      </g>
    </g>
    <path
       style="display:inline;fill:none;stroke:#000000;stroke-width:2.11666656;stroke-linecap:butt;stroke-linejoin:miter;stroke-miterlimit:4;stroke-dasharray:none;stroke-opacity:1;marker-end:url(#marker28452)"
       d="m 137.91972,66.964664 c -58.848502,20.465449 -25.70996,43.373986 6.91545,3.843189"
       id="path28314"
       inkscape:connector-curvature="0"
       sodipodi:nodetypes="cc" />
    <path
       style="display:inline;fill:none;stroke:#000000;stroke-width:2.11666656;stroke-linecap:butt;stroke-linejoin:miter;stroke-miterlimit:4;stroke-dasharray:none;stroke-opacity:1;marker-end:url(#marker49223-3)"
       d="M 47.150578,41.696532 C 93.99013,7.0407199 92.163259,40.248939 52.609879,49.639451"
       id="path49109"
       inkscape:connector-curvature="0"
       sodipodi:nodetypes="cc" />
    <path
       style="display:inline;fill:none;stroke:#000000;stroke-width:2.11666656;stroke-linecap:butt;stroke-linejoin:miter;stroke-miterlimit:4;stroke-dasharray:none;stroke-opacity:1;marker-end:url(#marker9421)"
       d="M 133.04361,49.702207 C 88.876179,110.33865 100.18161,70.815304 99.95105,38.664055"
       id="path7324"
       inkscape:connector-curvature="0"
       sodipodi:nodetypes="cc" />
    <path
       style="display:inline;fill:none;stroke:#000000;stroke-width:2.11666656;stroke-linecap:butt;stroke-linejoin:miter;stroke-miterlimit:4;stroke-dasharray:none;stroke-opacity:1;marker-end:url(#marker8955)"
       d="m 51.272169,62.811592 c 47.223061,38.563558 33.2812,8.503491 35.276039,-23.783737"
       id="path7326"
       inkscape:connector-curvature="0"
       sodipodi:nodetypes="cc" />
  </g>
</svg>
