<?xml version="1.0" encoding="UTF-8" standalone="no"?>
<!DOCTYPE svg PUBLIC "-//W3C//DTD SVG 1.1//EN"
 "http://www.w3.org/Graphics/SVG/1.1/DTD/svg11.dtd">
<!-- Generated by graphviz version 2.38.0 (20140413.2041)
 -->
<!-- Title: G Pages: 1 -->
<svg width="297pt" height="298pt"
 viewBox="0.00 0.00 297.02 297.76" xmlns="http://www.w3.org/2000/svg" xmlns:xlink="http://www.w3.org/1999/xlink">
<g id="graph0" class="graph" transform="scale(1 1) rotate(0) translate(156.696 157.337)">
<title>G</title>
<polygon fill="white" stroke="none" points="-156.696,140.425 -156.696,-157.337 140.325,-157.337 140.325,140.425 -156.696,140.425"/>
<!-- A -->
<g id="node1" class="node"><title>A</title>
<ellipse fill="none" stroke="black" cx="-48.7627" cy="-109.075" rx="18" ry="18"/>
<text text-anchor="middle" x="-48.7627" y="-105.375" font-family="Times,serif" font-size="14.00">A</text>
</g>
<!-- B -->
<g id="node2" class="node"><title>B</title>
<ellipse fill="none" stroke="black" cx="35.8463" cy="-135.337" rx="18" ry="18"/>
<text text-anchor="middle" x="35.8463" y="-131.637" font-family="Times,serif" font-size="14.00">B</text>
</g>
<!-- A&#45;&#45;B -->
<g id="edge1" class="edge"><title>A&#45;&#45;B</title>
<path fill="none" stroke="black" d="M-31.2317,-114.517C-16.6139,-119.054 4.09695,-125.483 18.6272,-129.993"/>
</g>
<!-- D -->
<g id="node3" class="node"><title>D</title>
<ellipse fill="none" stroke="black" cx="95.0207" cy="-70.9187" rx="18" ry="18"/>
<text text-anchor="middle" x="95.0207" y="-67.2187" font-family="Times,serif" font-size="14.00">D</text>
</g>
<!-- B&#45;&#45;D -->
<g id="edge2" class="edge"><title>B&#45;&#45;D</title>
<path fill="none" stroke="black" d="M48.1072,-121.99C58.263,-110.934 72.624,-95.3003 82.7754,-84.2492"/>
</g>
<!-- C -->
<g id="node4" class="node"><title>C</title>
<ellipse fill="none" stroke="black" cx="22.5757" cy="-89.6917" rx="18" ry="18"/>
<text text-anchor="middle" x="22.5757" y="-85.9917" font-family="Times,serif" font-size="14.00">C</text>
</g>
<!-- B&#45;&#45;C -->
<g id="edge5" class="edge"><title>B&#45;&#45;C</title>
<path fill="none" stroke="black" d="M30.7535,-117.82C29.7302,-114.3 28.6551,-110.602 27.633,-107.087"/>
</g>
<!-- D&#45;&#45;C -->
<g id="edge3" class="edge"><title>D&#45;&#45;C</title>
<path fill="none" stroke="black" d="M77.4838,-75.4631C66.1774,-78.393 51.5262,-82.1896 40.2022,-85.124"/>
</g>
<!-- E -->
<g id="node5" class="node"><title>E</title>
<ellipse fill="none" stroke="black" cx="118.325" cy="12.3017" rx="18" ry="18"/>
<text text-anchor="middle" x="118.325" y="16.0017" font-family="Times,serif" font-size="14.00">E</text>
</g>
<!-- D&#45;&#45;E -->
<g id="edge6" class="edge"><title>D&#45;&#45;E</title>
<path fill="none" stroke="black" d="M99.9629,-53.2698C103.944,-39.0516 109.511,-19.1713 113.47,-5.03643"/>
</g>
<!-- C&#45;&#45;A -->
<g id="edge4" class="edge"><title>C&#45;&#45;A</title>
<path fill="none" stroke="black" d="M4.9415,-94.4831C-6.1163,-97.4877 -20.3122,-101.345 -31.3313,-104.339"/>
</g>
<!-- F -->
<g id="node6" class="node"><title>F</title>
<ellipse fill="none" stroke="black" cx="65.6691" cy="64.953" rx="18" ry="18"/>
<text text-anchor="middle" x="65.6691" y="68.653" font-family="Times,serif" font-size="14.00">F</text>
</g>
<!-- E&#45;&#45;F -->
<g id="edge7" class="edge"><title>E&#45;&#45;F</title>
<path fill="none" stroke="black" d="M105.578,25.0471C97.4212,33.2034 86.869,43.7548 78.6639,51.9592"/>
</g>
<!-- H -->
<g id="node7" class="node"><title>H</title>
<ellipse fill="none" stroke="black" cx="14.0447" cy="118.425" rx="18" ry="18"/>
<text text-anchor="middle" x="14.0447" y="122.125" font-family="Times,serif" font-size="14.00">H</text>
</g>
<!-- F&#45;&#45;H -->
<g id="edge8" class="edge"><title>F&#45;&#45;H</title>
<path fill="none" stroke="black" d="M52.908,78.1707C44.9059,86.4591 34.633,97.0996 26.659,105.359"/>
</g>
<!-- G -->
<g id="node8" class="node"><title>G</title>
<ellipse fill="none" stroke="black" cx="99.7544" cy="98.203" rx="18" ry="18"/>
<text text-anchor="middle" x="99.7544" y="101.903" font-family="Times,serif" font-size="14.00">G</text>
</g>
<!-- F&#45;&#45;G -->
<g id="edge11" class="edge"><title>F&#45;&#45;G</title>
<path fill="none" stroke="black" d="M78.7499,77.7132C81.3031,80.2039 83.982,82.8171 86.5396,85.312"/>
</g>
<!-- H&#45;&#45;G -->
<g id="edge9" class="edge"><title>H&#45;&#45;G</title>
<path fill="none" stroke="black" d="M31.8038,114.235C46.5137,110.764 67.3144,105.857 82.0181,102.388"/>
</g>
<!-- I -->
<g id="node9" class="node"><title>I</title>
<ellipse fill="none" stroke="black" cx="-69.7101" cy="96.4892" rx="18" ry="18"/>
<text text-anchor="middle" x="-69.7101" y="100.189" font-family="Times,serif" font-size="14.00">I</text>
</g>
<!-- H&#45;&#45;I -->
<g id="edge12" class="edge"><title>H&#45;&#45;I</title>
<path fill="none" stroke="black" d="M-3.71756,113.773C-18.0271,110.025 -38.0351,104.785 -52.2607,101.059"/>
</g>
<!-- G&#45;&#45;E -->
<g id="edge10" class="edge"><title>G&#45;&#45;E</title>
<path fill="none" stroke="black" d="M103.602,80.4042C106.789,65.6614 111.296,44.8142 114.482,30.0777"/>
</g>
<!-- J -->
<g id="node10" class="node"><title>J</title>
<ellipse fill="none" stroke="black" cx="-88.7557" cy="24.5032" rx="18" ry="18"/>
<text text-anchor="middle" x="-88.7557" y="28.2032" font-family="Times,serif" font-size="14.00">J</text>
</g>
<!-- I&#45;&#45;J -->
<g id="edge13" class="edge"><title>I&#45;&#45;J</title>
<path fill="none" stroke="black" d="M-74.3205,79.0634C-77.2929,67.8286 -81.1447,53.2703 -84.1217,42.018"/>
</g>
<!-- L -->
<g id="node11" class="node"><title>L</title>
<ellipse fill="none" stroke="black" cx="-109.311" cy="-47.0585" rx="18" ry="18"/>
<text text-anchor="middle" x="-109.311" y="-43.3585" font-family="Times,serif" font-size="14.00">L</text>
</g>
<!-- J&#45;&#45;L -->
<g id="edge14" class="edge"><title>J&#45;&#45;L</title>
<path fill="none" stroke="black" d="M-93.7316,7.18011C-96.9398,-3.98844 -101.097,-18.4609 -104.31,-29.6469"/>
</g>
<!-- K -->
<g id="node12" class="node"><title>K</title>
<ellipse fill="none" stroke="black" cx="-134.696" cy="37.2068" rx="18" ry="18"/>
<text text-anchor="middle" x="-134.696" y="40.9068" font-family="Times,serif" font-size="14.00">K</text>
</g>
<!-- J&#45;&#45;K -->
<g id="edge17" class="edge"><title>J&#45;&#45;K</title>
<path fill="none" stroke="black" d="M-106.124,29.3059C-109.783,30.3177 -113.643,31.3853 -117.303,32.3973"/>
</g>
<!-- L&#45;&#45;A -->
<g id="edge18" class="edge"><title>L&#45;&#45;A</title>
<path fill="none" stroke="black" d="M-96.4706,-60.2106C-86.1953,-70.7351 -71.8555,-85.4226 -61.585,-95.942"/>
</g>
<!-- L&#45;&#45;K -->
<g id="edge15" class="edge"><title>L&#45;&#45;K</title>
<path fill="none" stroke="black" d="M-114.571,-29.5986C-118.928,-15.1366 -125.088,5.31355 -129.443,19.7694"/>
</g>
<!-- K&#45;&#45;I -->
<g id="edge16" class="edge"><title>K&#45;&#45;I</title>
<path fill="none" stroke="black" d="M-121.231,49.4902C-110.077,59.6645 -94.3063,74.0516 -83.1579,84.2216"/>
</g>
</g>
</svg>
